<svg id="svg" version="1.1" xmlns="http://www.w3.org/2000/svg" xmlns:xlink="http://www.w3.org/1999/xlink" width="400" height="400" viewBox="0, 0, 400,400"><g id="svgg"><path id="path0" d="M196.484 71.973 C 189.007 75.968,191.163 87.942,199.538 88.931 C 208.755 90.019,213.200 77.531,205.427 72.387 C 203.057 70.818,198.998 70.631,196.484 71.973 M181.836 74.611 C 160.344 77.884,133.169 90.417,120.338 102.973 C 120.245 103.064,120.751 104.343,121.463 105.815 L 122.757 108.490 126.906 105.001 C 141.739 92.526,162.549 83.211,183.038 79.875 L 187.365 79.171 187.400 76.500 C 187.424 74.687,187.288 73.839,186.979 73.863 C 186.728 73.882,184.414 74.219,181.836 74.611 M214.004 76.367 C 213.972 77.549,213.928 78.727,213.906 78.984 C 213.882 79.278,215.032 79.627,216.992 79.919 C 237.449 82.967,259.900 93.148,275.628 106.508 C 278.113 108.619,277.881 108.665,279.341 105.772 L 280.568 103.341 278.858 101.855 C 264.353 89.245,240.825 78.492,219.727 74.831 C 214.023 73.842,214.073 73.828,214.004 76.367 M203.704 76.556 C 207.795 80.399,203.412 86.752,198.442 84.182 C 195.264 82.538,195.237 77.739,198.396 75.953 C 199.811 75.153,202.541 75.463,203.704 76.556 M109.713 84.507 C 99.014 98.730,96.009 124.992,103.609 137.844 C 107.581 144.561,118.047 152.068,130.859 157.389 C 133.426 158.455,132.909 158.914,129.102 158.954 C 120.478 159.043,110.719 156.256,105.395 152.183 C 103.118 150.441,103.161 150.435,103.537 152.447 C 105.122 160.931,113.193 168.105,122.839 169.604 C 125.808 170.066,129.053 169.884,138.086 168.747 C 150.432 167.193,160.623 171.391,167.006 180.659 C 168.783 183.240,168.726 183.218,168.335 181.152 C 166.926 173.714,161.592 168.736,147.989 162.164 C 135.248 156.009,127.784 149.590,122.107 139.907 C 119.964 136.251,119.971 135.671,122.133 137.616 C 126.849 141.855,136.848 148.362,148.047 154.478 C 162.163 162.187,164.145 163.411,167.309 166.365 C 169.904 168.789,172.516 172.340,174.092 175.586 L 175.419 178.320 175.170 174.609 C 174.455 163.958,171.832 159.511,162.500 153.131 C 119.061 123.432,107.624 108.254,111.328 85.224 C 111.908 81.617,111.892 81.610,109.713 84.507 M289.246 82.958 C 293.920 104.310,282.472 122.007,248.828 145.434 C 228.056 159.900,226.967 161.229,226.328 172.914 L 226.096 177.148 227.625 174.173 C 231.537 166.561,234.541 164.038,248.863 156.340 C 263.083 148.697,274.393 141.499,279.004 137.158 C 281.214 135.077,280.794 136.120,277.286 141.422 C 270.619 151.499,263.745 157.089,251.618 162.298 C 246.180 164.634,241.580 167.224,240.039 168.817 C 239.129 169.757,239.042 169.965,239.648 169.748 C 246.027 167.461,251.922 167.272,263.086 168.998 C 282.157 171.946,294.416 165.672,297.017 151.634 L 297.257 150.337 295.601 151.759 C 293.335 153.705,287.565 156.482,283.789 157.445 C 276.691 159.253,262.742 159.268,268.775 157.460 C 269.648 157.199,273.120 155.600,276.490 153.908 C 298.841 142.682,303.959 132.033,299.993 105.002 C 299.012 98.317,294.355 88.149,289.829 82.813 L 289.001 81.836 289.246 82.958 M181.445 87.942 C 180.801 88.115,179.720 88.763,179.044 89.382 C 178.175 90.178,177.088 90.647,175.333 90.983 C 160.135 93.894,144.120 102.784,132.039 115.014 L 129.118 117.972 130.547 119.402 L 131.977 120.831 135.813 117.187 C 149.250 104.419,174.114 92.250,179.746 95.684 C 182.505 97.366,185.852 96.123,186.685 93.106 C 187.520 90.082,184.513 87.119,181.445 87.942 M215.607 88.965 C 211.445 92.684,216.299 98.995,220.913 95.863 L 222.404 94.852 226.729 95.909 C 240.802 99.351,254.301 106.884,265.154 117.350 L 268.784 120.851 270.193 119.442 L 271.602 118.034 270.354 116.459 C 262.258 106.236,240.968 94.325,224.906 91.031 C 223.667 90.777,222.443 90.268,222.171 89.895 C 220.542 87.653,217.550 87.229,215.607 88.965 M197.266 95.154 C 191.817 97.514,190.162 104.849,194.052 109.394 C 200.300 116.693,211.712 110.040,208.922 100.726 C 207.507 96.004,201.706 93.231,197.266 95.154 M203.051 99.619 C 205.210 100.936,206.031 103.810,204.830 105.844 C 202.375 110.000,196.081 108.420,196.102 103.652 C 196.120 99.820,199.840 97.661,203.051 99.619 M181.055 102.007 C 180.625 102.238,179.890 102.880,179.421 103.433 C 178.740 104.236,177.835 104.587,174.929 105.173 C 162.891 107.602,149.050 115.657,140.461 125.233 L 138.324 127.614 139.988 129.246 L 141.651 130.879 142.919 129.112 C 144.087 127.487,149.881 122.242,153.125 119.874 C 161.866 113.495,177.183 107.694,179.574 109.858 C 182.565 112.565,187.109 110.518,187.109 106.463 C 187.109 102.964,183.801 100.529,181.055 102.007 M216.090 102.334 C 212.421 104.628,213.435 110.358,217.592 110.816 C 219.019 110.973,219.604 110.826,220.808 110.003 L 222.280 108.998 225.105 109.585 C 236.353 111.923,250.643 120.276,258.044 128.837 L 259.255 130.238 260.878 128.954 C 262.944 127.317,263.091 127.712,258.887 123.595 C 249.215 114.123,237.211 107.551,225.043 105.067 C 223.066 104.664,222.295 104.284,221.333 103.242 C 219.755 101.534,217.886 101.211,216.090 102.334 M171.094 115.773 C 171.094 119.998,178.141 127.136,183.691 128.532 C 185.990 129.110,186.058 129.549,183.887 129.788 C 178.739 130.353,171.675 128.945,166.627 126.347 L 163.271 124.621 164.115 126.275 C 167.927 133.750,178.000 137.784,189.258 136.345 C 192.426 135.940,192.430 135.954,190.026 139.150 C 184.213 146.877,181.608 155.472,181.618 166.887 C 181.625 174.348,181.280 173.803,184.880 172.021 C 188.068 170.444,188.276 170.116,188.285 166.650 C 188.299 161.570,192.477 154.719,198.099 150.558 C 200.503 148.780,200.561 148.840,198.981 151.465 C 195.902 156.578,194.937 163.906,196.913 167.157 C 197.854 168.703,198.636 168.985,202.734 169.254 C 206.866 169.526,209.438 170.216,215.199 172.598 L 219.727 174.471 216.182 170.927 C 208.248 162.994,206.891 153.318,212.549 145.033 C 215.516 140.686,226.081 130.694,229.797 128.720 C 232.103 127.494,231.680 127.407,223.730 127.475 C 216.403 127.537,216.145 127.512,213.638 126.492 C 209.194 124.683,206.702 124.232,200.145 124.047 C 187.303 123.685,176.896 120.868,172.168 116.477 C 171.577 115.928,171.094 115.611,171.094 115.773 M214.263 129.957 C 216.740 130.617,216.740 130.617,216.218 131.617 C 214.130 135.611,210.446 136.311,205.285 133.696 L 203.331 132.706 204.277 132.075 C 208.080 129.545,210.661 128.997,214.263 129.957 M89.751 139.770 C 79.926 160.065,77.847 172.161,83.147 178.196 C 84.625 179.880,84.617 179.738,83.382 182.777 C 80.662 189.472,76.480 205.616,76.037 211.133 C 75.731 214.932,79.316 232.179,82.288 241.211 C 96.150 283.341,134.890 317.848,177.199 325.752 L 178.906 326.071 178.906 323.199 C 178.906 320.386,178.884 320.322,177.832 320.082 C 172.333 318.829,160.837 314.985,157.338 313.231 C 155.267 312.193,154.963 312.142,153.139 312.534 C 148.019 313.632,140.204 309.589,137.167 304.272 C 136.318 302.785,135.267 301.786,132.725 300.052 C 119.426 290.977,105.205 275.467,96.305 260.332 C 94.476 257.223,92.704 254.728,91.704 253.857 C 90.236 252.578,90.053 252.216,89.827 250.146 C 89.689 248.884,88.591 244.512,87.386 240.430 C 85.058 232.542,83.001 224.121,81.624 216.847 L 80.783 212.405 81.647 207.277 C 82.576 201.764,85.822 189.894,87.962 184.183 L 89.278 180.671 91.076 180.414 C 97.005 179.566,100.425 173.172,97.877 167.699 C 96.316 164.346,92.409 162.130,89.059 162.696 C 88.245 162.833,87.477 162.779,87.351 162.576 C 86.692 161.509,90.237 151.734,93.622 145.282 L 95.380 141.932 94.176 138.837 C 93.514 137.135,92.972 135.533,92.971 135.277 C 92.965 133.750,92.041 135.039,89.751 139.770 M306.969 138.386 L 305.539 142.303 307.614 146.444 C 310.988 153.178,313.672 160.163,313.672 162.208 C 313.672 162.874,313.464 162.921,311.556 162.682 C 300.436 161.293,298.257 178.676,309.332 180.427 C 311.804 180.818,311.227 179.859,313.822 187.889 C 319.055 204.083,320.147 210.438,318.879 217.313 C 317.509 224.734,314.634 236.745,312.885 242.351 C 312.045 245.045,311.239 248.176,311.094 249.309 C 310.774 251.813,310.115 253.197,308.847 254.028 C 308.320 254.373,307.233 255.762,306.431 257.113 C 299.525 268.759,294.258 275.863,286.689 283.740 C 279.830 290.878,270.795 298.606,265.987 301.446 C 265.349 301.823,264.458 302.893,264.008 303.824 C 261.539 308.924,252.831 313.641,247.848 312.578 C 246.231 312.233,245.786 312.330,242.513 313.742 C 240.548 314.588,236.552 316.057,233.631 317.006 C 230.710 317.955,227.917 318.867,227.424 319.034 C 226.625 319.303,223.542 325.234,223.975 325.668 C 224.475 326.168,238.121 321.989,245.508 319.073 C 279.367 305.708,309.309 273.128,319.284 238.796 C 322.294 228.438,324.859 214.273,324.449 210.273 C 323.858 204.508,321.135 193.909,317.682 183.933 L 316.244 179.780 317.548 178.294 C 320.638 174.776,321.312 171.264,320.112 164.938 C 318.745 157.734,313.884 144.640,309.690 136.864 L 308.398 134.470 306.969 138.386 M91.606 167.359 C 93.284 168.061,94.528 170.040,94.530 172.012 C 94.533 175.108,90.678 177.366,87.756 175.979 C 82.065 173.279,85.793 164.931,91.606 167.359 M314.195 168.311 C 316.067 170.183,316.146 172.995,314.376 174.764 C 311.070 178.071,306.120 176.201,306.120 171.646 C 306.120 167.546,311.293 165.410,314.195 168.311 M194.336 174.972 C 180.961 177.162,171.071 188.437,172.038 200.391 C 172.985 212.091,179.740 217.557,196.680 220.331 C 209.610 222.448,213.988 225.295,213.714 231.406 C 213.132 244.353,190.069 246.414,183.132 234.140 L 182.227 232.537 176.190 235.989 C 172.870 237.887,169.970 239.519,169.745 239.614 C 169.155 239.863,174.793 245.268,177.707 247.247 C 195.300 259.194,219.323 254.321,225.221 237.608 C 226.930 232.767,226.409 225.420,224.006 220.458 C 220.958 214.164,215.372 211.414,199.901 208.590 C 186.761 206.192,183.175 203.662,184.200 197.515 C 186.396 184.342,207.745 182.945,215.049 195.497 C 215.411 196.120,215.776 195.986,218.955 194.062 C 220.883 192.895,223.560 191.356,224.902 190.642 C 227.991 189.000,228.002 189.062,223.926 185.101 C 215.480 176.892,204.843 173.251,194.336 174.972 M115.234 175.532 C 115.234 175.664,121.196 179.115,127.539 182.654 L 130.273 184.180 136.310 184.375 L 142.346 184.570 143.226 186.719 C 143.711 187.900,146.144 194.014,148.634 200.305 C 151.124 206.596,154.226 214.273,155.527 217.365 L 157.894 222.986 160.583 224.774 C 162.062 225.758,163.450 226.563,163.667 226.563 C 163.885 226.563,164.063 226.734,164.063 226.943 C 164.063 227.168,161.666 227.367,158.189 227.431 L 152.315 227.539 156.186 231.133 L 160.057 234.728 166.374 231.426 C 169.849 229.611,172.872 228.125,173.091 228.125 C 173.656 228.125,173.459 227.583,168.748 216.211 C 166.434 210.625,162.062 199.971,159.031 192.535 C 156.000 185.099,153.159 178.200,152.718 177.203 L 151.917 175.391 133.575 175.391 C 123.488 175.391,115.234 175.454,115.234 175.532 M236.230 176.069 C 232.601 176.898,231.840 176.115,243.190 183.235 L 249.856 187.417 257.838 187.590 C 264.495 187.734,266.137 187.887,267.727 188.510 C 277.680 192.411,277.907 208.040,268.064 211.722 C 266.189 212.424,265.014 212.500,256.040 212.500 L 246.094 212.500 246.094 202.246 L 246.095 191.992 239.844 192.108 L 233.594 192.225 233.594 221.503 L 233.594 250.781 239.838 250.781 L 246.083 250.781 246.186 237.793 L 246.289 224.805 252.487 224.697 C 259.669 224.572,258.733 224.146,263.052 229.507 C 264.789 231.663,269.455 237.332,273.419 242.104 L 280.627 250.781 292.267 250.781 L 303.906 250.781 303.906 246.066 C 303.906 241.517,303.968 241.169,305.644 236.203 C 310.756 221.062,311.957 203.942,308.972 188.767 C 308.393 185.823,308.216 185.556,306.600 185.188 C 305.870 185.022,304.890 184.763,304.421 184.613 C 303.621 184.356,303.590 184.418,303.917 185.627 C 305.632 191.976,306.441 210.658,305.283 217.188 C 305.150 217.939,304.773 220.180,304.446 222.166 C 303.846 225.807,302.080 232.797,300.351 238.375 L 299.414 241.399 294.531 241.390 C 291.298 241.384,289.444 241.221,289.042 240.906 C 287.369 239.593,272.964 222.098,273.428 221.943 C 294.675 214.861,293.402 181.651,271.666 175.989 C 268.319 175.118,240.119 175.181,236.230 176.069 M94.557 185.107 C 92.129 185.857,92.177 185.762,91.198 191.785 C 88.911 205.844,90.021 220.630,94.401 234.475 C 95.165 236.891,96.122 239.519,96.528 240.316 C 97.125 241.489,97.266 242.626,97.266 246.274 L 97.266 250.781 106.204 250.781 C 114.387 250.781,115.159 250.723,115.328 250.098 C 115.430 249.722,116.891 246.296,118.574 242.485 L 121.635 235.556 137.477 235.454 L 153.318 235.352 148.084 229.785 L 142.850 224.219 134.966 224.219 C 130.631 224.219,126.988 224.123,126.871 224.006 C 126.606 223.742,128.895 218.123,140.112 191.504 C 140.272 191.124,138.763 191.016,133.295 191.016 L 126.272 191.016 119.120 207.715 C 115.187 216.899,110.441 228.193,108.574 232.813 L 105.180 241.211 103.295 241.211 L 101.410 241.211 99.702 235.976 C 94.592 220.310,93.378 200.741,96.648 186.726 C 96.950 185.433,97.080 184.392,96.938 184.413 C 96.796 184.434,95.724 184.747,94.557 185.107 M129.688 254.529 C 121.146 258.229,123.614 271.665,132.811 271.535 C 135.267 271.501,137.284 270.847,138.932 269.550 L 139.927 268.768 142.717 271.022 C 144.252 272.262,147.418 274.675,149.753 276.385 C 152.087 278.094,154.930 280.238,156.070 281.149 L 158.142 282.805 158.416 280.248 C 158.760 277.036,159.095 277.414,149.368 270.043 L 141.899 264.384 141.686 262.320 C 141.041 256.074,135.071 252.197,129.688 254.529 M263.679 254.960 C 260.793 256.481,259.335 258.583,259.025 261.671 C 258.772 264.185,257.775 265.269,252.183 269.117 L 250.495 270.278 249.693 269.417 C 249.252 268.943,247.819 267.148,246.509 265.430 C 244.775 263.156,243.470 261.906,241.719 260.840 L 239.312 259.375 226.033 259.375 L 212.754 259.375 213.648 260.327 C 214.601 261.341,218.775 263.661,221.559 264.724 C 222.834 265.210,225.199 265.421,231.312 265.593 L 239.382 265.820 240.882 267.029 C 241.708 267.694,243.252 269.425,244.314 270.877 L 246.245 273.515 245.291 274.254 C 244.766 274.661,243.677 275.458,242.871 276.026 L 241.406 277.060 239.551 275.329 C 237.506 273.422,234.046 271.313,232.227 270.864 L 231.055 270.575 232.511 272.193 C 234.878 274.823,237.508 279.051,238.854 282.389 L 240.113 285.510 241.052 284.870 C 241.569 284.517,243.574 282.797,245.508 281.047 C 247.441 279.297,250.693 276.564,252.734 274.974 C 254.775 273.384,257.367 271.340,258.493 270.431 L 260.542 268.779 262.523 270.011 C 267.612 273.174,274.358 270.909,275.800 265.554 C 277.926 257.660,270.639 251.291,263.679 254.960 M102.734 256.851 C 102.734 257.635,106.768 263.620,110.041 267.691 C 116.957 276.294,123.298 282.291,133.839 290.197 L 140.400 295.117 140.447 297.266 C 140.631 305.657,150.396 310.355,155.743 304.623 C 163.141 296.691,153.675 284.476,144.533 290.159 L 142.556 291.388 138.758 288.585 C 126.694 279.681,118.368 271.592,110.632 261.261 L 106.880 256.250 104.807 256.250 C 103.202 256.250,102.734 256.386,102.734 256.851 M292.479 258.066 C 285.118 268.718,275.545 278.300,262.891 287.680 C 260.635 289.352,258.676 290.898,258.538 291.115 C 258.388 291.353,257.765 291.120,256.976 290.530 C 247.943 283.780,237.308 296.335,245.039 304.623 C 250.534 310.514,261.702 304.644,260.407 296.545 L 260.170 295.064 265.339 291.325 C 277.578 282.471,288.231 271.699,295.742 260.582 C 298.558 256.415,298.559 256.387,295.897 256.300 C 293.751 256.230,293.746 256.232,292.479 258.066 M175.105 261.931 C 175.639 274.490,180.858 282.727,192.019 288.624 C 199.025 292.326,199.393 297.846,193.145 305.521 C 188.159 311.647,186.949 314.665,186.510 322.070 C 186.016 330.407,184.213 333.843,178.987 336.411 C 176.086 337.837,170.110 338.235,167.222 337.195 C 165.128 336.441,165.349 336.907,168.028 338.895 C 185.240 351.666,211.206 341.498,219.852 318.600 C 226.230 301.708,221.570 286.473,207.031 276.679 C 201.961 273.264,198.565 270.203,196.254 266.963 C 194.766 264.878,194.250 264.439,193.041 264.230 C 192.249 264.093,190.927 263.838,190.103 263.665 C 188.296 263.284,188.323 263.853,190.303 267.773 C 193.003 273.121,195.647 276.056,201.989 280.744 C 210.305 286.890,213.392 292.623,213.935 302.930 C 214.764 318.652,204.516 333.132,190.169 336.515 C 186.821 337.304,186.728 337.277,188.303 335.979 C 191.288 333.518,192.950 328.562,192.968 322.070 C 192.979 317.689,193.636 314.668,195.038 312.550 C 196.234 310.743,201.969 304.964,202.269 305.264 C 202.886 305.880,201.617 312.089,200.262 315.088 C 198.816 318.289,198.535 320.361,199.167 323.164 L 199.414 324.259 201.050 322.579 C 207.834 315.613,209.847 302.283,205.437 293.515 C 203.841 290.341,201.421 287.646,197.326 284.481 C 188.312 277.514,184.425 272.245,181.666 263.253 C 180.798 260.423,180.708 260.298,179.024 259.602 C 178.065 259.205,176.743 258.428,176.086 257.875 L 174.890 256.870 175.105 261.931 M135.561 258.789 C 140.660 262.109,136.248 269.779,130.847 266.986 C 129.403 266.239,128.516 264.551,128.516 262.549 C 128.516 259.085,132.637 256.885,135.561 258.789 M270.538 259.473 C 272.992 261.722,272.683 265.564,269.935 266.986 C 266.578 268.722,262.891 266.633,262.891 262.995 C 262.891 258.640,267.375 256.575,270.538 259.473 M207.629 264.669 C 207.206 264.989,206.171 265.436,205.328 265.663 L 203.797 266.075 205.902 268.233 C 207.060 269.419,209.802 271.602,211.994 273.083 C 222.218 279.988,227.657 288.283,229.130 299.219 C 229.476 301.782,229.402 308.883,229.023 309.515 C 228.877 309.760,229.054 309.719,229.419 309.424 C 232.090 307.257,234.375 300.610,234.375 295.007 C 234.375 283.349,228.747 275.028,216.844 269.088 C 214.185 267.760,211.239 266.087,210.298 265.368 C 208.319 263.858,208.603 263.933,207.629 264.669 M169.797 271.777 C 159.077 287.289,166.731 311.763,181.934 310.585 C 183.304 310.479,182.394 308.680,180.762 308.266 C 174.834 306.765,170.709 300.279,171.658 293.952 L 171.930 292.141 174.149 294.506 C 177.876 298.481,183.386 301.149,186.709 300.588 C 190.870 299.885,191.696 295.313,187.662 295.313 C 179.741 295.313,171.377 284.472,171.014 273.734 C 170.950 271.856,170.878 270.318,170.854 270.316 C 170.829 270.314,170.354 270.972,169.797 271.777 M247.738 279.785 C 247.449 280.134,247.547 280.537,248.081 281.196 L 248.828 282.118 248.828 280.707 C 248.828 279.255,248.446 278.931,247.738 279.785 M151.599 293.574 C 152.243 293.906,153.112 294.741,153.531 295.429 C 156.544 300.370,149.726 305.289,145.801 301.006 C 142.168 297.042,146.807 291.095,151.599 293.574 M253.501 293.547 C 255.281 294.468,256.250 295.985,256.250 297.852 C 256.250 302.436,250.022 304.486,247.583 300.704 C 244.860 296.482,249.148 291.296,253.501 293.547 " stroke="none" fill="#fbfbfb" fill-rule="evenodd"></path><path id="path1" d="M194.267 73.145 C 193.832 73.628,193.336 74.287,193.165 74.609 C 192.835 75.231,192.925 75.146,194.508 73.340 C 195.025 72.749,195.361 72.266,195.253 72.266 C 195.146 72.266,194.702 72.661,194.267 73.145 M206.874 73.414 C 207.324 73.964,207.983 74.849,208.339 75.380 C 208.694 75.911,208.984 76.153,208.984 75.918 C 208.984 75.683,208.325 74.799,207.520 73.953 C 206.714 73.107,206.423 72.865,206.874 73.414 M186.523 73.704 C 186.953 73.822,187.450 74.118,187.627 74.362 C 187.841 74.654,187.897 74.606,187.792 74.219 C 187.705 73.896,187.208 73.600,186.688 73.561 C 185.942 73.504,185.907 73.534,186.523 73.704 M183.058 74.137 C 182.953 74.307,183.470 74.376,184.207 74.290 C 184.944 74.204,185.547 74.065,185.547 73.981 C 185.547 73.687,183.247 73.831,183.058 74.137 M213.770 75.195 C 213.775 76.055,213.855 76.360,213.948 75.874 C 214.042 75.388,214.038 74.685,213.940 74.312 C 213.842 73.938,213.766 74.336,213.770 75.195 M173.438 75.781 C 172.664 76.029,172.624 76.094,173.242 76.094 C 173.672 76.094,174.463 75.953,175.000 75.781 C 175.773 75.534,175.814 75.469,175.195 75.469 C 174.766 75.469,173.975 75.609,173.438 75.781 M200.098 75.660 C 200.474 75.758,201.089 75.758,201.465 75.660 C 201.841 75.562,201.533 75.481,200.781 75.481 C 200.029 75.481,199.722 75.562,200.098 75.660 M191.497 80.078 C 191.497 80.830,191.577 81.138,191.676 80.762 C 191.774 80.386,191.774 79.771,191.676 79.395 C 191.577 79.019,191.497 79.326,191.497 80.078 M203.647 83.098 C 202.967 83.801,202.539 84.375,202.695 84.375 C 203.058 84.375,205.272 82.076,205.050 81.931 C 204.958 81.871,204.327 82.396,203.647 83.098 M246.875 82.617 C 247.412 82.924,248.027 83.175,248.242 83.175 C 248.457 83.175,248.193 82.924,247.656 82.617 C 247.119 82.310,246.504 82.059,246.289 82.059 C 246.074 82.059,246.338 82.310,246.875 82.617 M150.781 83.398 C 150.244 83.705,149.980 83.957,150.195 83.957 C 150.410 83.957,151.025 83.705,151.563 83.398 C 152.100 83.091,152.363 82.840,152.148 82.840 C 151.934 82.840,151.318 83.091,150.781 83.398 M250.391 84.180 C 250.928 84.487,251.543 84.738,251.758 84.738 C 251.973 84.738,251.709 84.487,251.172 84.180 C 250.635 83.873,250.020 83.621,249.805 83.621 C 249.590 83.621,249.854 83.873,250.391 84.180 M198.848 84.396 C 199.370 84.726,202.287 84.943,201.921 84.624 C 201.831 84.546,200.976 84.382,200.020 84.260 C 198.896 84.116,198.482 84.164,198.848 84.396 M146.387 85.380 C 144.872 86.201,145.044 86.485,146.582 85.703 C 148.055 84.954,148.315 84.760,147.819 84.781 C 147.622 84.790,146.978 85.059,146.387 85.380 M194.141 86.523 C 194.869 87.275,195.554 87.891,195.661 87.891 C 195.768 87.891,195.260 87.275,194.531 86.523 C 193.802 85.771,193.118 85.156,193.011 85.156 C 192.903 85.156,193.412 85.771,194.141 86.523 M207.002 86.185 C 206.481 86.750,205.527 87.541,204.883 87.941 C 204.238 88.341,203.941 88.670,204.222 88.670 C 204.709 88.672,208.641 85.184,208.174 85.165 C 208.050 85.160,207.523 85.619,207.002 86.185 M111.036 88.086 C 111.040 88.945,111.120 89.251,111.214 88.765 C 111.307 88.279,111.304 87.576,111.206 87.202 C 111.108 86.829,111.032 87.227,111.036 88.086 M257.031 87.285 C 257.031 87.392,257.559 87.753,258.203 88.086 C 258.848 88.419,259.375 88.604,259.375 88.497 C 259.375 88.389,258.848 88.029,258.203 87.695 C 257.559 87.362,257.031 87.177,257.031 87.285 M217.480 87.776 C 217.964 87.869,218.755 87.869,219.238 87.776 C 219.722 87.683,219.326 87.606,218.359 87.606 C 217.393 87.606,216.997 87.683,217.480 87.776 M294.336 89.453 C 294.669 90.098,295.030 90.625,295.137 90.625 C 295.245 90.625,295.060 90.098,294.727 89.453 C 294.393 88.809,294.033 88.281,293.925 88.281 C 293.818 88.281,294.003 88.809,294.336 89.453 M199.707 89.332 C 200.083 89.430,200.698 89.430,201.074 89.332 C 201.450 89.234,201.143 89.153,200.391 89.153 C 199.639 89.153,199.331 89.234,199.707 89.332 M248.047 89.648 C 248.584 89.955,249.199 90.207,249.414 90.207 C 249.629 90.207,249.365 89.955,248.828 89.648 C 248.291 89.341,247.676 89.090,247.461 89.090 C 247.246 89.090,247.510 89.341,248.047 89.648 M289.942 91.992 C 289.947 92.852,290.027 93.157,290.120 92.671 C 290.213 92.185,290.210 91.482,290.112 91.109 C 290.014 90.735,289.938 91.133,289.942 91.992 M171.680 91.406 C 171.187 91.618,171.115 91.742,171.484 91.742 C 171.807 91.742,172.422 91.591,172.852 91.406 C 173.344 91.195,173.416 91.071,173.047 91.071 C 172.725 91.071,172.109 91.222,171.680 91.406 M213.770 92.383 C 213.775 93.242,213.855 93.548,213.948 93.062 C 214.042 92.576,214.038 91.873,213.940 91.499 C 213.842 91.126,213.766 91.523,213.770 92.383 M264.648 91.609 C 265.078 91.958,265.781 92.417,266.211 92.628 L 266.992 93.012 266.211 92.376 C 265.781 92.026,265.078 91.567,264.648 91.356 L 263.867 90.973 264.648 91.609 M231.055 92.578 C 231.484 92.763,232.100 92.914,232.422 92.914 C 232.791 92.914,232.719 92.790,232.227 92.578 C 231.797 92.393,231.182 92.242,230.859 92.242 C 230.490 92.242,230.562 92.367,231.055 92.578 M254.688 92.758 C 254.688 92.865,255.391 93.312,256.250 93.750 C 257.109 94.188,257.813 94.459,257.813 94.352 C 257.813 94.244,257.109 93.798,256.250 93.359 C 255.391 92.921,254.688 92.650,254.688 92.758 M199.712 94.421 C 200.306 94.511,201.185 94.508,201.666 94.416 C 202.146 94.323,201.660 94.249,200.586 94.252 C 199.512 94.255,199.119 94.331,199.712 94.421 M269.531 94.673 C 269.531 94.781,270.059 95.244,270.703 95.703 C 271.348 96.162,271.875 96.450,271.875 96.342 C 271.875 96.235,271.348 95.771,270.703 95.313 C 270.059 94.854,269.531 94.566,269.531 94.673 M177.734 95.208 C 178.271 95.307,178.975 95.590,179.297 95.838 C 179.807 96.230,179.813 96.200,179.347 95.605 C 179.051 95.229,178.350 94.946,177.784 94.975 L 176.758 95.028 177.734 95.208 M127.930 96.722 L 126.367 98.121 128.027 96.879 C 129.456 95.810,129.972 95.296,129.590 95.318 C 129.536 95.322,128.789 95.953,127.930 96.722 M224.219 95.703 C 224.756 95.875,225.547 96.016,225.977 96.016 C 226.595 96.016,226.555 95.951,225.781 95.703 C 225.244 95.531,224.453 95.390,224.023 95.390 C 223.405 95.390,223.445 95.455,224.219 95.703 M206.641 97.070 C 207.369 97.822,208.054 98.438,208.161 98.438 C 208.268 98.438,207.760 97.822,207.031 97.070 C 206.302 96.318,205.618 95.703,205.511 95.703 C 205.403 95.703,205.912 96.318,206.641 97.070 M155.371 97.487 C 154.351 98.018,153.516 98.540,153.516 98.647 C 153.516 98.821,157.383 96.995,157.780 96.633 C 158.264 96.192,156.993 96.642,155.371 97.487 M265.234 98.986 C 265.234 99.093,266.025 99.725,266.992 100.391 C 267.959 101.056,268.750 101.512,268.750 101.405 C 268.750 101.297,267.959 100.665,266.992 100.000 C 266.025 99.335,265.234 98.878,265.234 98.986 M132.617 100.620 L 131.445 101.627 132.715 100.787 C 133.413 100.325,133.984 99.871,133.984 99.778 C 133.984 99.486,133.819 99.588,132.617 100.620 M241.439 101.321 C 241.837 101.685,246.484 103.897,246.484 103.722 C 246.484 103.503,241.972 101.172,241.548 101.172 C 241.398 101.172,241.349 101.239,241.439 101.321 M184.570 102.020 C 185.000 102.258,185.624 102.648,185.957 102.887 C 186.289 103.125,186.148 102.925,185.642 102.441 C 185.136 101.958,184.512 101.568,184.256 101.574 C 183.999 101.581,184.141 101.781,184.570 102.020 M209.481 103.516 C 209.481 104.482,209.558 104.878,209.651 104.395 C 209.744 103.911,209.744 103.120,209.651 102.637 C 209.558 102.153,209.481 102.549,209.481 103.516 M214.683 103.155 C 214.127 103.816,213.683 104.651,213.697 105.010 C 213.713 105.432,213.860 105.317,214.111 104.688 C 214.325 104.151,214.872 103.316,215.326 102.832 C 215.780 102.349,216.049 101.953,215.923 101.953 C 215.797 101.953,215.239 102.494,214.683 103.155 M187.216 106.641 C 187.216 107.607,187.292 108.003,187.385 107.520 C 187.478 107.036,187.478 106.245,187.385 105.762 C 187.292 105.278,187.216 105.674,187.216 106.641 M226.953 105.469 C 228.289 105.896,229.316 105.896,228.320 105.469 C 227.891 105.284,227.188 105.138,226.758 105.145 C 226.130 105.154,226.168 105.217,226.953 105.469 M203.396 106.848 C 202.793 107.379,202.455 107.813,202.645 107.813 C 202.834 107.813,203.402 107.373,203.906 106.836 C 205.074 105.593,204.816 105.600,203.396 106.848 M278.711 107.031 C 278.061 108.288,277.768 108.425,277.030 107.814 C 276.771 107.600,276.807 107.709,277.110 108.055 C 277.412 108.402,277.853 108.566,278.090 108.420 C 278.565 108.126,279.824 105.859,279.512 105.859 C 279.405 105.859,279.044 106.387,278.711 107.031 M300.360 107.325 C 300.546 108.673,300.574 108.700,300.702 107.667 C 300.779 107.050,300.688 106.391,300.500 106.203 C 300.303 106.006,300.243 106.485,300.360 107.325 M286.392 107.243 C 285.737 108.680,285.862 108.986,286.570 107.680 C 286.900 107.070,287.097 106.498,287.008 106.409 C 286.919 106.320,286.641 106.695,286.392 107.243 M199.907 108.089 C 200.393 108.182,201.096 108.179,201.469 108.081 C 201.843 107.983,201.445 107.907,200.586 107.911 C 199.727 107.915,199.421 107.995,199.907 108.089 M253.906 108.345 C 253.906 108.453,254.434 108.916,255.078 109.375 C 255.723 109.834,256.250 110.122,256.250 110.014 C 256.250 109.907,255.723 109.443,255.078 108.984 C 254.434 108.525,253.906 108.238,253.906 108.345 M99.700 109.766 C 99.700 110.518,99.780 110.825,99.879 110.449 C 99.977 110.073,99.977 109.458,99.879 109.082 C 99.780 108.706,99.700 109.014,99.700 109.766 M263.281 109.497 C 263.281 109.564,263.853 110.136,264.551 110.767 L 265.820 111.914 264.673 110.645 C 263.604 109.461,263.281 109.195,263.281 109.497 M300.888 110.938 C 300.888 111.904,300.964 112.300,301.057 111.816 C 301.150 111.333,301.150 110.542,301.057 110.059 C 300.964 109.575,300.888 109.971,300.888 110.938 M134.946 111.816 L 133.008 113.867 135.059 111.929 C 136.964 110.128,137.289 109.766,136.997 109.766 C 136.935 109.766,136.012 110.688,134.946 111.816 M217.485 111.214 C 217.971 111.307,218.674 111.304,219.048 111.206 C 219.421 111.108,219.023 111.032,218.164 111.036 C 217.305 111.040,216.999 111.120,217.485 111.214 M242.188 111.113 C 242.188 111.220,242.715 111.581,243.359 111.914 C 244.004 112.247,244.531 112.432,244.531 112.325 C 244.531 112.217,244.004 111.857,243.359 111.523 C 242.715 111.190,242.188 111.005,242.188 111.113 M99.021 116.896 C 98.868 119.341,98.816 121.681,98.904 122.097 C 98.992 122.512,99.197 120.591,99.358 117.827 C 99.520 115.064,99.573 112.724,99.475 112.627 C 99.378 112.529,99.174 114.451,99.021 116.896 M268.555 114.453 C 269.613 115.527,270.566 116.406,270.674 116.406 C 270.781 116.406,270.003 115.527,268.945 114.453 C 267.887 113.379,266.934 112.500,266.826 112.500 C 266.719 112.500,267.497 113.379,268.555 114.453 M138.843 114.551 L 137.695 115.820 138.965 114.673 C 140.148 113.604,140.414 113.281,140.112 113.281 C 140.045 113.281,139.474 113.853,138.843 114.551 M236.751 113.821 C 237.149 114.185,241.797 116.397,241.797 116.222 C 241.797 116.003,237.284 113.672,236.860 113.672 C 236.711 113.672,236.662 113.739,236.751 113.821 M130.660 116.020 L 128.732 117.977 130.277 119.438 L 131.821 120.898 130.479 119.430 L 129.137 117.962 131.058 116.012 C 132.114 114.940,132.891 114.063,132.783 114.063 C 132.676 114.063,131.720 114.943,130.660 116.020 M262.500 114.951 C 262.500 115.010,263.862 116.373,265.527 117.979 L 268.555 120.898 265.635 117.871 C 262.923 115.059,262.500 114.666,262.500 114.951 M301.324 119.727 C 301.324 122.520,301.387 123.611,301.462 122.152 C 301.537 120.693,301.537 118.407,301.461 117.074 C 301.385 115.740,301.323 116.934,301.324 119.727 M170.703 115.690 C 170.703 115.941,170.821 116.028,170.964 115.885 C 171.108 115.741,171.591 115.931,172.039 116.308 C 172.851 116.992,172.851 116.991,172.107 116.113 C 171.295 115.154,170.703 114.975,170.703 115.690 M133.984 118.945 C 133.036 119.912,132.347 120.703,132.455 120.703 C 132.562 120.703,133.426 119.912,134.375 118.945 C 135.324 117.979,136.012 117.188,135.905 117.188 C 135.797 117.188,134.933 117.979,133.984 118.945 M270.139 119.506 L 268.598 121.289 270.315 119.642 C 271.259 118.737,271.953 117.934,271.856 117.860 C 271.759 117.785,270.986 118.526,270.139 119.506 M256.055 120.703 C 256.894 121.563,257.668 122.266,257.776 122.266 C 257.883 122.266,257.284 121.563,256.445 120.703 C 255.606 119.844,254.832 119.141,254.724 119.141 C 254.617 119.141,255.216 119.844,256.055 120.703 M277.514 120.801 L 276.367 122.070 277.637 120.923 C 278.335 120.292,278.906 119.721,278.906 119.653 C 278.906 119.352,278.584 119.617,277.514 120.801 M123.047 121.216 C 123.047 121.283,123.618 121.854,124.316 122.486 L 125.586 123.633 124.439 122.363 C 123.369 121.180,123.047 120.914,123.047 121.216 M142.188 122.852 C 141.239 123.818,140.550 124.609,140.658 124.609 C 140.765 124.609,141.629 123.818,142.578 122.852 C 143.527 121.885,144.215 121.094,144.108 121.094 C 144.001 121.094,143.136 121.885,142.188 122.852 M99.325 124.609 C 99.325 125.576,99.401 125.972,99.494 125.488 C 99.588 125.005,99.588 124.214,99.494 123.730 C 99.401 123.247,99.325 123.643,99.325 124.609 M190.723 123.316 C 191.099 123.414,191.714 123.414,192.090 123.316 C 192.466 123.218,192.158 123.138,191.406 123.138 C 190.654 123.138,190.347 123.218,190.723 123.316 M271.672 127.051 L 267.773 131.055 271.777 127.156 C 273.979 125.011,275.781 123.210,275.781 123.152 C 275.781 122.869,275.294 123.332,271.672 127.051 M194.425 123.719 C 195.118 123.806,196.349 123.807,197.159 123.723 C 197.970 123.638,197.402 123.567,195.898 123.566 C 194.395 123.564,193.731 123.633,194.425 123.719 M255.756 126.948 C 259.273 130.554,259.381 130.628,260.053 129.896 C 260.713 129.176,260.713 129.167,260.036 129.678 C 259.398 130.159,258.978 129.871,255.739 126.730 L 252.148 123.248 255.756 126.948 M162.934 124.716 C 163.571 125.940,163.638 125.976,163.569 125.054 C 163.535 124.606,163.276 124.151,162.995 124.042 C 162.585 123.885,162.573 124.021,162.934 124.716 M175.391 123.950 C 175.391 124.018,175.962 124.589,176.660 125.220 L 177.930 126.367 176.782 125.098 C 175.713 123.914,175.391 123.649,175.391 123.950 M125.781 124.326 C 125.781 124.385,127.144 125.748,128.809 127.354 L 131.836 130.273 128.916 127.246 C 126.204 124.434,125.781 124.041,125.781 124.326 M209.570 125.000 C 210.000 125.185,210.615 125.336,210.938 125.336 C 211.307 125.336,211.235 125.212,210.742 125.000 C 210.313 124.815,209.697 124.664,209.375 124.664 C 209.006 124.664,209.078 124.788,209.570 125.000 M261.306 125.870 C 262.629 127.318,262.632 127.332,261.899 128.214 L 261.162 129.102 262.115 128.220 L 263.069 127.339 261.522 125.877 L 259.976 124.414 261.306 125.870 M138.967 126.465 C 138.047 127.431,138.000 127.616,138.503 128.297 C 138.811 128.714,139.063 128.857,139.063 128.613 C 139.063 128.370,138.872 128.054,138.640 127.910 C 138.373 127.745,138.616 127.232,139.299 126.520 C 139.894 125.899,140.293 125.391,140.185 125.391 C 140.078 125.391,139.530 125.874,138.967 126.465 M229.199 127.229 C 229.683 127.322,230.474 127.322,230.957 127.229 C 231.440 127.136,231.045 127.060,230.078 127.060 C 229.111 127.060,228.716 127.136,229.199 127.229 M219.831 127.627 C 220.533 127.714,221.588 127.712,222.175 127.623 C 222.762 127.534,222.187 127.463,220.898 127.465 C 219.609 127.467,219.129 127.540,219.831 127.627 M223.926 127.613 C 224.302 127.711,224.917 127.711,225.293 127.613 C 225.669 127.515,225.361 127.434,224.609 127.434 C 223.857 127.434,223.550 127.515,223.926 127.613 M143.095 129.004 C 142.660 129.487,142.164 130.146,141.993 130.469 C 141.663 131.090,141.753 131.005,143.336 129.199 C 143.853 128.608,144.189 128.125,144.081 128.125 C 143.974 128.125,143.530 128.521,143.095 129.004 M167.383 130.859 C 168.441 131.934,169.394 132.813,169.502 132.813 C 169.609 132.813,168.832 131.934,167.773 130.859 C 166.715 129.785,165.762 128.906,165.654 128.906 C 165.547 128.906,166.325 129.785,167.383 130.859 M183.984 129.297 C 183.508 129.605,183.558 129.677,184.254 129.682 C 184.725 129.685,185.219 129.512,185.352 129.297 C 185.659 128.800,184.754 128.800,183.984 129.297 M177.051 129.566 C 177.427 129.664,178.042 129.664,178.418 129.566 C 178.794 129.468,178.486 129.388,177.734 129.388 C 176.982 129.388,176.675 129.468,177.051 129.566 M210.254 129.566 C 210.630 129.664,211.245 129.664,211.621 129.566 C 211.997 129.468,211.689 129.388,210.938 129.388 C 210.186 129.388,209.878 129.468,210.254 129.566 M221.163 135.840 L 216.142 140.820 220.864 136.354 C 223.461 133.898,225.843 131.657,226.158 131.374 C 226.473 131.091,226.607 130.859,226.457 130.859 C 226.307 130.859,223.924 133.101,221.163 135.840 M264.844 133.259 L 262.695 135.243 264.745 133.602 C 266.542 132.162,267.493 131.223,267.113 131.262 C 267.047 131.269,266.025 132.168,264.844 133.259 M171.094 133.785 C 171.094 134.053,173.486 135.238,173.664 135.060 C 173.749 134.975,173.205 134.613,172.456 134.256 C 171.707 133.899,171.094 133.687,171.094 133.785 M307.843 134.668 C 307.863 135.110,307.946 135.171,308.078 134.843 C 308.231 134.460,308.423 134.509,308.850 135.038 C 309.372 135.685,309.384 135.671,308.992 134.863 C 308.486 133.819,307.800 133.702,307.843 134.668 M297.928 136.138 C 297.571 136.887,297.359 137.500,297.457 137.500 C 297.725 137.500,298.910 135.108,298.732 134.930 C 298.647 134.845,298.285 135.388,297.928 136.138 M189.396 136.618 L 191.488 136.762 190.763 137.619 L 190.039 138.477 190.918 137.732 C 192.267 136.590,191.992 136.322,189.551 136.400 L 187.305 136.473 189.396 136.618 M278.686 137.583 C 278.055 138.273,277.880 138.580,278.296 138.266 C 278.979 137.751,279.028 137.762,278.796 138.379 C 278.384 139.480,278.767 139.168,279.636 137.695 C 280.644 135.986,280.195 135.933,278.686 137.583 M183.112 137.002 C 183.815 137.089,184.869 137.087,185.456 136.998 C 186.043 136.909,185.469 136.838,184.180 136.840 C 182.891 136.842,182.410 136.915,183.112 137.002 M88.848 140.664 C 88.292 141.759,87.904 142.721,87.984 142.801 C 88.064 142.881,88.601 141.985,89.178 140.809 C 89.754 139.634,90.143 138.672,90.041 138.672 C 89.940 138.672,89.403 139.568,88.848 140.664 M142.969 139.205 C 142.969 139.312,143.496 139.775,144.141 140.234 C 144.785 140.693,145.313 140.981,145.313 140.874 C 145.313 140.766,144.785 140.303,144.141 139.844 C 143.496 139.385,142.969 139.097,142.969 139.205 M292.372 143.457 L 289.648 146.289 292.480 143.565 C 294.038 142.067,295.313 140.793,295.313 140.733 C 295.313 140.447,294.902 140.827,292.372 143.457 M276.172 142.578 C 275.713 143.223,275.425 143.750,275.533 143.750 C 275.640 143.750,276.104 143.223,276.563 142.578 C 277.021 141.934,277.309 141.406,277.202 141.406 C 277.094 141.406,276.631 141.934,276.172 142.578 M185.918 144.960 C 185.469 145.840,185.169 146.627,185.251 146.709 C 185.333 146.791,185.782 146.071,186.249 145.109 C 187.314 142.917,187.026 142.788,185.918 144.960 M108.984 144.653 C 108.984 144.721,109.556 145.292,110.254 145.923 L 111.523 147.070 110.376 145.801 C 109.307 144.617,108.984 144.352,108.984 144.653 M247.070 146.323 L 245.898 147.330 247.168 146.490 C 247.866 146.028,248.438 145.574,248.438 145.481 C 248.438 145.189,248.272 145.291,247.070 146.323 M112.372 147.687 C 112.857 148.274,115.234 149.770,115.234 149.488 C 115.234 149.397,114.487 148.830,113.574 148.228 C 112.661 147.625,112.120 147.382,112.372 147.687 M270.107 150.098 L 267.383 152.930 270.215 150.206 C 271.772 148.708,273.047 147.433,273.047 147.374 C 273.047 147.087,272.637 147.467,270.107 150.098 M129.883 150.000 C 131.158 151.289,132.290 152.344,132.397 152.344 C 132.505 152.344,131.549 151.289,130.273 150.000 C 128.998 148.711,127.866 147.656,127.759 147.656 C 127.651 147.656,128.607 148.711,129.883 150.000 M308.231 148.242 C 308.231 148.457,308.482 149.072,308.789 149.609 C 309.096 150.146,309.347 150.410,309.347 150.195 C 309.347 149.980,309.096 149.365,308.789 148.828 C 308.482 148.291,308.231 148.027,308.231 148.242 M102.734 150.456 C 102.734 150.706,102.852 150.794,102.996 150.650 C 103.139 150.506,103.623 150.697,104.070 151.073 C 104.882 151.757,104.882 151.757,104.139 150.879 C 103.326 149.919,102.734 149.741,102.734 150.456 M296.064 151.074 L 295.117 152.148 296.289 151.172 C 296.934 150.635,297.534 150.151,297.624 150.098 C 297.713 150.044,297.612 150.000,297.399 150.000 C 297.186 150.000,296.585 150.483,296.064 151.074 M141.797 151.347 C 141.797 151.455,142.324 151.815,142.969 152.148 C 143.613 152.482,144.141 152.667,144.141 152.559 C 144.141 152.452,143.613 152.091,142.969 151.758 C 142.324 151.425,141.797 151.240,141.797 151.347 M105.341 151.984 C 105.826 152.571,108.203 154.067,108.203 153.785 C 108.203 153.694,107.456 153.127,106.543 152.525 C 105.630 151.922,105.089 151.679,105.341 151.984 M194.712 153.613 L 192.773 155.664 194.824 153.726 C 195.952 152.659,196.875 151.737,196.875 151.675 C 196.875 151.383,196.513 151.708,194.712 153.613 M119.531 152.135 C 119.531 152.243,120.410 152.776,121.484 153.320 C 122.559 153.865,123.438 154.222,123.438 154.115 C 123.438 154.007,122.559 153.474,121.484 152.930 C 120.410 152.385,119.531 152.028,119.531 152.135 M197.329 153.728 C 196.675 155.164,196.799 155.471,197.507 154.165 C 197.838 153.555,198.035 152.983,197.946 152.894 C 197.856 152.804,197.579 153.180,197.329 153.728 M235.645 154.321 C 234.517 155.187,233.594 155.981,233.594 156.085 C 233.594 156.190,234.561 155.545,235.742 154.653 C 237.608 153.245,238.175 152.716,237.793 152.741 C 237.739 152.744,236.772 153.455,235.645 154.321 M146.094 153.691 C 146.094 153.798,146.621 154.159,147.266 154.492 C 147.910 154.825,148.438 155.010,148.438 154.903 C 148.438 154.795,147.910 154.435,147.266 154.102 C 146.621 153.768,146.094 153.583,146.094 153.691 M291.016 154.297 C 290.264 154.709,289.789 155.053,289.961 155.062 C 290.375 155.083,292.578 153.938,292.578 153.701 C 292.578 153.445,292.555 153.454,291.016 154.297 M252.246 154.520 C 250.786 155.313,250.875 155.643,252.344 154.883 C 252.988 154.550,253.516 154.193,253.516 154.092 C 253.516 153.840,253.474 153.854,252.246 154.520 M125.391 155.273 C 126.357 155.791,127.324 156.215,127.539 156.215 C 127.754 156.215,127.139 155.791,126.172 155.273 C 125.205 154.756,124.238 154.332,124.023 154.332 C 123.809 154.332,124.424 154.756,125.391 155.273 M196.289 156.641 C 196.141 157.316,196.107 157.956,196.215 158.064 C 196.322 158.171,196.531 157.707,196.680 157.031 C 196.828 156.356,196.861 155.716,196.754 155.608 C 196.647 155.501,196.437 155.965,196.289 156.641 M150.391 156.035 C 150.391 156.142,150.918 156.503,151.563 156.836 C 152.207 157.169,152.734 157.354,152.734 157.247 C 152.734 157.139,152.207 156.779,151.563 156.445 C 150.918 156.112,150.391 155.927,150.391 156.035 M231.421 157.910 L 230.273 159.180 231.543 158.032 C 232.241 157.401,232.813 156.830,232.813 156.763 C 232.813 156.461,232.490 156.727,231.421 157.910 M267.383 158.203 C 267.250 158.418,267.514 158.594,267.969 158.594 C 268.424 158.594,268.687 158.418,268.555 158.203 C 268.422 157.988,268.158 157.813,267.969 157.813 C 267.779 157.813,267.516 157.988,267.383 158.203 M154.688 158.383 C 154.688 158.490,155.391 158.937,156.250 159.375 C 157.109 159.813,157.813 160.084,157.813 159.977 C 157.813 159.869,157.109 159.423,156.250 158.984 C 155.391 158.546,154.688 158.275,154.688 158.383 M254.297 160.742 C 253.760 161.049,253.496 161.300,253.711 161.300 C 253.926 161.300,254.541 161.049,255.078 160.742 C 255.615 160.435,255.879 160.184,255.664 160.184 C 255.449 160.184,254.834 160.435,254.297 160.742 M181.341 161.719 C 181.341 162.471,181.421 162.778,181.519 162.402 C 181.618 162.026,181.618 161.411,181.519 161.035 C 181.421 160.659,181.341 160.967,181.341 161.719 M108.594 162.695 C 109.323 163.447,110.007 164.063,110.114 164.063 C 110.222 164.063,109.713 163.447,108.984 162.695 C 108.256 161.943,107.571 161.328,107.464 161.328 C 107.357 161.328,107.865 161.943,108.594 162.695 M291.193 162.988 L 289.648 164.648 291.309 163.104 C 292.853 161.668,293.148 161.328,292.853 161.328 C 292.789 161.328,292.042 162.075,291.193 162.988 M188.895 163.114 C 188.751 163.686,188.709 164.230,188.801 164.322 C 188.893 164.414,189.086 164.021,189.230 163.449 C 189.374 162.876,189.416 162.332,189.324 162.240 C 189.232 162.148,189.039 162.541,188.895 163.114 M306.445 162.955 C 305.310 163.581,303.511 165.307,303.051 166.211 C 302.832 166.641,303.230 166.310,303.936 165.477 C 304.641 164.643,305.934 163.637,306.808 163.239 C 307.683 162.842,308.135 162.519,307.813 162.520 C 307.490 162.522,306.875 162.718,306.445 162.955 M151.172 163.461 C 151.172 163.568,151.875 164.015,152.734 164.453 C 153.594 164.892,154.297 165.162,154.297 165.055 C 154.297 164.948,153.594 164.501,152.734 164.063 C 151.875 163.624,151.172 163.353,151.172 163.461 M96.094 165.039 C 96.823 165.791,97.507 166.406,97.614 166.406 C 97.722 166.406,97.213 165.791,96.484 165.039 C 95.756 164.287,95.071 163.672,94.964 163.672 C 94.857 163.672,95.365 164.287,96.094 165.039 M164.844 164.516 C 166.725 166.402,169.953 169.138,168.750 167.827 C 167.998 167.008,166.680 165.795,165.820 165.133 C 164.961 164.470,164.521 164.193,164.844 164.516 M173.492 164.844 C 173.492 165.166,173.643 165.781,173.828 166.211 C 174.040 166.703,174.164 166.776,174.164 166.406 C 174.164 166.084,174.013 165.469,173.828 165.039 C 173.617 164.547,173.492 164.474,173.492 164.844 M244.824 165.067 C 243.364 165.859,243.453 166.189,244.922 165.430 C 245.566 165.096,246.094 164.740,246.094 164.638 C 246.094 164.387,246.052 164.401,244.824 165.067 M113.672 166.598 C 113.672 166.865,116.064 168.051,116.242 167.872 C 116.327 167.787,115.783 167.426,115.034 167.069 C 114.285 166.711,113.672 166.499,113.672 166.598 M91.668 167.757 C 93.097 168.378,93.793 169.471,94.168 171.680 C 94.425 173.191,94.435 173.200,94.482 171.953 C 94.566 169.747,92.685 167.160,91.026 167.203 C 90.698 167.211,90.987 167.461,91.668 167.757 M240.014 168.457 L 238.867 169.727 240.137 168.579 C 240.835 167.948,241.406 167.377,241.406 167.310 C 241.406 167.008,241.084 167.274,240.014 168.457 M312.695 167.645 C 313.125 167.883,313.749 168.273,314.082 168.512 C 314.414 168.750,314.273 168.550,313.767 168.066 C 313.261 167.583,312.637 167.193,312.381 167.199 C 312.124 167.206,312.266 167.406,312.695 167.645 M158.594 167.720 C 158.594 167.828,159.121 168.291,159.766 168.750 C 160.410 169.209,160.938 169.497,160.938 169.389 C 160.938 169.282,160.410 168.818,159.766 168.359 C 159.121 167.900,158.594 167.613,158.594 167.720 M320.828 169.922 C 320.828 171.318,320.899 171.890,320.986 171.191 C 321.072 170.493,321.072 169.351,320.986 168.652 C 320.899 167.954,320.828 168.525,320.828 169.922 M254.004 168.238 C 254.380 168.336,254.995 168.336,255.371 168.238 C 255.747 168.140,255.439 168.059,254.688 168.059 C 253.936 168.059,253.628 168.140,254.004 168.238 M138.281 168.713 C 137.314 168.843,139.456 168.949,143.041 168.948 C 146.626 168.946,149.263 168.826,148.900 168.680 C 148.106 168.359,140.738 168.383,138.281 168.713 M257.910 168.629 C 258.286 168.727,258.901 168.727,259.277 168.629 C 259.653 168.530,259.346 168.450,258.594 168.450 C 257.842 168.450,257.534 168.530,257.910 168.629 M98.707 170.553 C 98.965 173.198,99.152 173.567,99.182 171.484 C 99.196 170.518,99.053 169.483,98.864 169.186 C 98.653 168.852,98.593 169.377,98.707 170.553 M198.922 169.207 C 199.193 169.379,200.469 169.508,201.758 169.494 C 204.609 169.464,204.190 169.251,200.875 169.046 C 199.531 168.963,198.652 169.035,198.922 169.207 M261.914 169.163 C 262.773 169.341,264.004 169.474,264.648 169.460 C 265.527 169.440,265.381 169.355,264.063 169.121 C 261.705 168.701,259.858 168.738,261.914 169.163 M134.282 169.417 C 134.768 169.510,135.471 169.507,135.844 169.409 C 136.218 169.311,135.820 169.235,134.961 169.239 C 134.102 169.243,133.796 169.323,134.282 169.417 M216.211 171.094 C 217.269 172.168,218.223 173.047,218.330 173.047 C 218.437 173.047,217.660 172.168,216.602 171.094 C 215.543 170.020,214.590 169.141,214.482 169.141 C 214.375 169.141,215.153 170.020,216.211 171.094 M130.566 169.801 C 130.942 169.899,131.558 169.899,131.934 169.801 C 132.310 169.702,132.002 169.622,131.250 169.622 C 130.498 169.622,130.190 169.702,130.566 169.801 M301.680 171.484 C 301.680 172.666,301.753 173.149,301.842 172.559 C 301.932 171.968,301.932 171.001,301.842 170.410 C 301.753 169.819,301.680 170.303,301.680 171.484 M125.098 170.191 C 125.474 170.289,126.089 170.289,126.465 170.191 C 126.841 170.093,126.533 170.013,125.781 170.013 C 125.029 170.013,124.722 170.093,125.098 170.191 M162.891 171.289 C 163.619 172.041,164.304 172.656,164.411 172.656 C 164.518 172.656,164.010 172.041,163.281 171.289 C 162.552 170.537,161.868 169.922,161.761 169.922 C 161.653 169.922,162.162 170.537,162.891 171.289 M271.777 170.208 C 272.690 170.290,274.185 170.290,275.098 170.208 C 276.011 170.126,275.264 170.058,273.438 170.058 C 271.611 170.058,270.864 170.126,271.777 170.208 M181.356 171.875 C 181.356 172.842,181.433 173.237,181.526 172.754 C 181.619 172.271,181.619 171.479,181.526 170.996 C 181.433 170.513,181.356 170.908,181.356 171.875 M225.909 174.023 C 225.911 175.527,225.982 176.095,226.066 175.284 C 226.151 174.474,226.149 173.243,226.063 172.550 C 225.977 171.856,225.908 172.520,225.909 174.023 M183.887 172.489 C 182.372 173.311,182.544 173.594,184.082 172.812 C 185.555 172.063,185.815 171.869,185.319 171.891 C 185.122 171.899,184.478 172.169,183.887 172.489 M173.516 175.187 C 173.984 176.149,174.433 176.869,174.515 176.787 C 174.692 176.610,173.113 173.438,172.849 173.438 C 172.748 173.438,173.049 174.225,173.516 175.187 M80.469 174.368 C 80.469 174.788,81.631 176.953,81.856 176.953 C 81.963 176.953,81.761 176.382,81.406 175.684 C 80.681 174.258,80.469 173.960,80.469 174.368 M198.156 174.506 C 199.183 174.587,200.765 174.586,201.672 174.504 C 202.579 174.422,201.738 174.356,199.805 174.357 C 197.871 174.359,197.129 174.426,198.156 174.506 M115.056 175.364 C 114.932 175.564,115.037 175.854,115.288 176.010 C 115.569 176.183,115.641 176.124,115.475 175.855 C 115.284 175.545,116.434 175.381,119.419 175.292 L 123.633 175.166 119.457 175.083 C 117.160 175.037,115.179 175.164,115.056 175.364 M268.066 175.269 C 268.442 175.368,269.058 175.368,269.434 175.269 C 269.810 175.171,269.502 175.091,268.750 175.091 C 267.998 175.091,267.690 175.171,268.066 175.269 M163.477 176.953 C 164.316 177.813,165.090 178.516,165.198 178.516 C 165.305 178.516,164.706 177.813,163.867 176.953 C 163.028 176.094,162.254 175.391,162.146 175.391 C 162.039 175.391,162.637 176.094,163.477 176.953 M318.940 176.465 C 318.565 177.056,317.798 178.066,317.235 178.711 L 316.211 179.883 317.386 178.826 C 318.468 177.853,320.194 175.391,319.794 175.391 C 319.699 175.391,319.314 175.874,318.940 176.465 M175.385 177.441 C 175.380 178.169,175.307 178.220,174.964 177.734 C 174.627 177.258,174.578 177.253,174.702 177.710 C 174.977 178.730,175.781 178.627,175.781 177.572 C 175.781 177.017,175.693 176.563,175.586 176.563 C 175.479 176.563,175.388 176.958,175.385 177.441 M95.682 178.418 L 94.336 179.883 95.801 178.537 C 97.164 177.284,97.445 176.953,97.147 176.953 C 97.082 176.953,96.422 177.612,95.682 178.418 M82.861 178.320 C 83.425 178.965,83.983 179.756,84.100 180.078 C 84.284 180.583,84.318 180.579,84.344 180.054 C 84.361 179.718,83.804 178.927,83.105 178.296 L 81.836 177.148 82.861 178.320 M127.734 183.004 C 127.734 183.271,130.126 184.457,130.305 184.279 C 130.390 184.194,129.846 183.832,129.097 183.475 C 128.347 183.117,127.734 182.906,127.734 183.004 M136.312 184.662 C 140.187 184.749,142.066 184.938,142.299 185.265 C 142.543 185.609,142.593 185.578,142.478 185.156 C 142.346 184.670,141.330 184.567,136.491 184.553 L 130.664 184.536 136.312 184.662 M225.781 186.914 C 226.510 187.666,227.194 188.281,227.302 188.281 C 227.409 188.281,226.901 187.666,226.172 186.914 C 225.443 186.162,224.759 185.547,224.651 185.547 C 224.544 185.547,225.052 186.162,225.781 186.914 M247.852 186.531 C 248.281 186.880,248.984 187.339,249.414 187.550 L 250.195 187.934 249.414 187.298 C 248.984 186.948,248.281 186.489,247.852 186.278 L 247.070 185.894 247.852 186.531 M199.907 186.995 C 200.393 187.088,201.096 187.085,201.469 186.987 C 201.843 186.889,201.445 186.813,200.586 186.817 C 199.727 186.822,199.421 186.902,199.907 186.995 M253.437 187.791 C 255.219 187.863,258.032 187.863,259.687 187.790 C 261.341 187.717,259.883 187.658,256.445 187.658 C 253.008 187.659,251.654 187.718,253.437 187.791 M267.611 188.797 C 268.232 189.273,270.703 190.563,270.703 190.411 C 270.703 190.150,268.244 188.675,267.806 188.673 C 267.609 188.673,267.521 188.728,267.611 188.797 M126.037 190.918 C 125.937 191.079,129.179 191.211,133.240 191.211 C 137.302 191.211,140.625 191.079,140.625 190.918 C 140.625 190.757,137.383 190.625,133.421 190.625 C 129.460 190.625,126.137 190.757,126.037 190.918 M90.716 192.578 C 90.716 193.330,90.796 193.638,90.894 193.262 C 90.993 192.886,90.993 192.271,90.894 191.895 C 90.796 191.519,90.716 191.826,90.716 192.578 M246.008 201.990 L 246.118 212.500 256.360 212.409 L 266.602 212.318 256.543 212.207 L 246.484 212.096 246.484 201.970 C 246.484 196.400,246.353 191.761,246.191 191.662 C 246.030 191.562,245.948 196.210,246.008 201.990 M304.778 192.578 C 304.778 193.330,304.859 193.638,304.957 193.262 C 305.055 192.886,305.055 192.271,304.957 191.895 C 304.859 191.519,304.778 191.826,304.778 192.578 M233.395 221.289 L 233.398 250.977 239.941 251.084 L 246.484 251.191 246.392 237.998 L 246.300 224.805 246.192 237.793 L 246.083 250.781 239.841 250.781 L 233.599 250.781 233.495 221.191 L 233.391 191.602 233.395 221.289 M90.325 195.703 C 90.325 196.455,90.405 196.763,90.504 196.387 C 90.602 196.011,90.602 195.396,90.504 195.020 C 90.405 194.644,90.325 194.951,90.325 195.703 M95.411 195.898 C 95.415 196.758,95.495 197.063,95.589 196.577 C 95.682 196.092,95.679 195.388,95.581 195.015 C 95.483 194.642,95.407 195.039,95.411 195.898 M214.524 195.508 C 214.769 196.045,215.121 196.484,215.306 196.484 C 215.491 196.484,215.355 196.045,215.003 195.508 C 214.651 194.971,214.299 194.531,214.221 194.531 C 214.143 194.531,214.279 194.971,214.524 195.508 M310.255 197.461 C 310.259 198.320,310.339 198.626,310.433 198.140 C 310.526 197.654,310.522 196.951,310.425 196.577 C 310.327 196.204,310.250 196.602,310.255 197.461 M171.605 199.023 C 171.608 200.312,171.681 200.793,171.767 200.091 C 171.854 199.389,171.853 198.334,171.763 197.747 C 171.674 197.160,171.603 197.734,171.605 199.023 M89.942 199.805 C 89.947 200.664,90.027 200.970,90.120 200.484 C 90.213 199.998,90.210 199.295,90.112 198.921 C 90.014 198.548,89.938 198.945,89.942 199.805 M275.117 200.391 C 275.117 201.572,275.190 202.056,275.280 201.465 C 275.369 200.874,275.369 199.907,275.280 199.316 C 275.190 198.726,275.117 199.209,275.117 200.391 M95.056 201.758 C 95.057 203.477,95.126 204.131,95.208 203.212 C 95.291 202.294,95.290 200.887,95.206 200.087 C 95.122 199.287,95.054 200.039,95.056 201.758 M305.594 201.172 C 305.594 202.568,305.665 203.140,305.751 202.441 C 305.838 201.743,305.838 200.601,305.751 199.902 C 305.665 199.204,305.594 199.775,305.594 201.172 M310.664 202.344 C 310.664 203.525,310.737 204.009,310.827 203.418 C 310.916 202.827,310.916 201.860,310.827 201.270 C 310.737 200.679,310.664 201.162,310.664 202.344 M305.611 207.617 C 305.612 209.766,305.678 210.595,305.757 209.460 C 305.836 208.324,305.836 206.567,305.755 205.553 C 305.675 204.540,305.610 205.469,305.611 207.617 M95.061 209.570 C 95.059 211.504,95.125 212.344,95.207 211.438 C 95.289 210.531,95.290 208.949,95.209 207.922 C 95.129 206.895,95.062 207.637,95.061 209.570 M271.463 209.277 L 270.117 210.742 271.582 209.396 C 272.945 208.143,273.226 207.813,272.928 207.813 C 272.863 207.813,272.204 208.472,271.463 209.277 M310.638 211.719 C 310.638 212.471,310.718 212.778,310.816 212.402 C 310.914 212.026,310.914 211.411,310.816 211.035 C 310.718 210.659,310.638 210.967,310.638 211.719 M324.721 212.305 C 324.724 213.379,324.800 213.772,324.890 213.178 C 324.979 212.584,324.977 211.706,324.884 211.225 C 324.792 210.745,324.718 211.230,324.721 212.305 M89.950 213.672 C 89.950 214.639,90.026 215.034,90.119 214.551 C 90.213 214.067,90.213 213.276,90.119 212.793 C 90.026 212.310,89.950 212.705,89.950 213.672 M305.177 215.039 C 305.181 215.898,305.261 216.204,305.354 215.718 C 305.448 215.232,305.444 214.529,305.347 214.156 C 305.249 213.782,305.172 214.180,305.177 215.039 M95.411 216.211 C 95.415 217.070,95.495 217.376,95.589 216.890 C 95.682 216.404,95.679 215.701,95.581 215.327 C 95.483 214.954,95.407 215.352,95.411 216.211 M310.247 216.406 C 310.247 217.158,310.327 217.466,310.426 217.090 C 310.524 216.714,310.524 216.099,310.426 215.723 C 310.327 215.347,310.247 215.654,310.247 216.406 M155.496 218.164 C 155.496 218.379,155.748 218.994,156.055 219.531 C 156.362 220.068,156.613 220.332,156.613 220.117 C 156.613 219.902,156.362 219.287,156.055 218.750 C 155.748 218.213,155.496 217.949,155.496 218.164 M157.031 221.767 C 157.031 221.993,157.393 222.594,157.836 223.101 L 158.640 224.023 157.954 222.852 C 157.051 221.309,157.031 221.286,157.031 221.767 M142.578 223.936 C 142.578 223.995,143.940 225.357,145.605 226.963 L 148.633 229.883 145.713 226.855 C 143.001 224.044,142.578 223.650,142.578 223.936 M248.926 225.285 C 249.731 225.369,251.050 225.369,251.855 225.285 C 252.661 225.200,252.002 225.131,250.391 225.131 C 248.779 225.131,248.120 225.200,248.926 225.285 M275.781 225.513 C 275.781 225.580,276.353 226.151,277.051 226.782 L 278.320 227.930 277.173 226.660 C 276.104 225.477,275.781 225.211,275.781 225.513 M162.671 226.524 C 162.859 226.828,161.339 226.953,157.445 226.953 C 151.191 226.953,151.253 226.907,154.004 229.507 L 156.055 231.445 154.127 229.405 L 152.199 227.365 158.228 227.257 C 163.520 227.162,164.144 227.084,163.332 226.621 C 162.806 226.322,162.521 226.280,162.671 226.524 M97.332 227.344 C 97.352 228.359,97.967 230.026,97.980 229.102 C 97.987 228.672,97.841 227.969,97.656 227.539 C 97.451 227.060,97.325 226.985,97.332 227.344 M150.765 232.520 C 152.384 234.244,152.734 234.554,152.734 234.261 C 152.734 234.198,151.899 233.363,150.879 232.406 L 149.023 230.664 150.765 232.520 M158.187 233.301 C 159.806 235.025,160.156 235.336,160.156 235.042 C 160.156 234.980,159.321 234.145,158.301 233.187 L 156.445 231.445 158.187 233.301 M176.465 235.380 C 175.005 236.172,175.093 236.502,176.563 235.742 C 177.207 235.409,177.734 235.053,177.734 234.951 C 177.734 234.700,177.692 234.714,176.465 235.380 M137.305 235.547 L 121.289 235.755 137.402 235.846 C 147.945 235.906,153.516 235.802,153.516 235.547 C 153.516 235.332,153.472 235.197,153.418 235.247 C 153.364 235.297,146.113 235.432,137.305 235.547 M269.140 237.499 C 270.038 238.572,270.978 239.576,271.227 239.729 C 271.476 239.882,270.823 239.004,269.777 237.777 C 268.730 236.550,267.791 235.547,267.690 235.547 C 267.588 235.547,268.241 236.425,269.140 237.499 M286.238 237.695 C 289.352 241.559,289.093 241.446,294.538 241.321 C 298.054 241.241,299.377 241.077,299.451 240.713 C 299.506 240.439,299.461 240.395,299.352 240.615 C 299.233 240.856,297.237 241.016,294.337 241.016 L 289.521 241.016 287.093 238.379 C 285.495 236.644,285.203 236.410,286.238 237.695 M209.936 238.379 L 208.789 239.648 210.059 238.501 C 210.757 237.870,211.328 237.299,211.328 237.232 C 211.328 236.930,211.006 237.196,209.936 238.379 M170.996 238.505 C 169.536 239.297,169.625 239.627,171.094 238.867 C 171.738 238.534,172.266 238.178,172.266 238.076 C 172.266 237.825,172.224 237.839,170.996 238.505 M169.141 239.691 C 169.141 239.894,170.415 241.286,171.973 242.784 L 174.805 245.508 172.070 242.589 C 170.566 240.983,169.292 239.592,169.238 239.496 C 169.185 239.401,169.141 239.489,169.141 239.691 M207.031 240.234 C 206.279 240.646,205.805 240.990,205.976 240.999 C 206.390 241.021,208.594 239.875,208.594 239.638 C 208.594 239.383,208.571 239.391,207.031 240.234 M96.799 246.130 L 96.918 251.172 106.174 251.082 L 115.430 250.992 106.348 250.879 L 97.266 250.767 97.266 246.110 C 97.266 243.548,97.134 241.370,96.973 241.270 C 96.812 241.170,96.733 243.357,96.799 246.130 M273.047 242.310 C 273.047 242.377,273.618 242.948,274.316 243.579 L 275.586 244.727 274.439 243.457 C 273.369 242.274,273.047 242.008,273.047 242.310 M175.749 246.236 C 176.269 246.876,177.734 247.845,177.734 247.548 C 177.734 247.474,177.163 246.994,176.465 246.483 C 175.679 245.908,175.406 245.814,175.749 246.236 M179.297 248.631 C 179.297 248.893,184.032 251.254,184.207 251.080 C 184.285 251.001,183.213 250.376,181.823 249.691 C 180.434 249.005,179.297 248.529,179.297 248.631 M310.645 250.195 C 310.650 251.055,310.730 251.360,310.823 250.874 C 310.917 250.388,310.913 249.685,310.815 249.312 C 310.717 248.938,310.641 249.336,310.645 250.195 M286.230 251.073 C 289.507 251.139,294.868 251.139,298.145 251.073 C 301.421 251.008,298.740 250.955,292.188 250.955 C 285.635 250.955,282.954 251.008,286.230 251.073 M176.415 251.840 C 175.905 252.351,176.206 252.652,177.014 252.441 C 177.564 252.297,177.765 252.368,177.594 252.646 C 177.449 252.880,177.724 253.347,178.205 253.684 C 179.195 254.377,179.854 254.491,179.492 253.906 C 179.359 253.691,179.453 253.516,179.701 253.516 C 180.002 253.516,180.106 254.226,180.017 255.665 C 179.943 256.847,180.015 257.813,180.176 257.813 C 180.337 257.813,180.469 256.849,180.469 255.671 L 180.469 253.529 178.563 252.563 C 177.515 252.032,176.548 251.707,176.415 251.840 M175.391 252.953 C 175.391 253.503,175.550 253.854,175.745 253.734 C 175.939 253.613,176.007 253.163,175.894 252.734 C 175.613 251.659,175.391 251.756,175.391 252.953 M131.738 253.795 C 132.329 253.885,133.296 253.885,133.887 253.795 C 134.478 253.706,133.994 253.633,132.813 253.633 C 131.631 253.633,131.147 253.706,131.738 253.795 M266.900 253.796 C 267.494 253.886,268.373 253.883,268.853 253.791 C 269.333 253.698,268.848 253.624,267.773 253.627 C 266.699 253.630,266.306 253.706,266.900 253.796 M197.754 254.176 C 198.130 254.274,198.745 254.274,199.121 254.176 C 199.497 254.077,199.189 253.997,198.438 253.997 C 197.686 253.997,197.378 254.077,197.754 254.176 M200.879 254.176 C 201.255 254.274,201.870 254.274,202.246 254.176 C 202.622 254.077,202.314 253.997,201.563 253.997 C 200.811 253.997,200.503 254.077,200.879 254.176 M175.006 254.809 C 175.021 255.937,175.648 256.268,176.059 255.364 C 176.411 254.593,176.362 254.448,175.737 254.401 C 175.331 254.370,175.003 254.554,175.006 254.809 M139.063 256.445 C 139.791 257.197,140.476 257.813,140.583 257.813 C 140.690 257.813,140.182 257.197,139.453 256.445 C 138.724 255.693,138.040 255.078,137.933 255.078 C 137.825 255.078,138.334 255.693,139.063 256.445 M272.656 255.200 C 272.656 255.268,273.228 255.839,273.926 256.470 L 275.195 257.617 274.048 256.348 C 272.979 255.164,272.656 254.899,272.656 255.200 M104.004 256.139 C 104.595 256.229,105.562 256.229,106.152 256.139 C 106.743 256.050,106.260 255.976,105.078 255.976 C 103.896 255.976,103.413 256.050,104.004 256.139 M293.127 256.738 C 292.389 257.610,292.389 257.612,293.164 256.969 C 293.594 256.613,294.385 256.241,294.922 256.143 L 295.898 255.966 294.885 255.913 C 294.266 255.880,293.581 256.202,293.127 256.738 M174.752 260.352 C 174.753 262.500,174.819 263.329,174.898 262.194 C 174.977 261.059,174.976 259.301,174.896 258.288 C 174.816 257.274,174.751 258.203,174.752 260.352 M176.009 256.979 C 175.626 257.598,179.285 260.038,179.810 259.513 C 180.110 259.213,179.178 258.239,178.806 258.464 C 178.643 258.563,178.405 258.368,178.276 258.033 C 178.147 257.697,177.610 257.422,177.084 257.422 C 176.545 257.422,176.231 257.251,176.367 257.031 C 176.500 256.816,176.521 256.641,176.413 256.641 C 176.306 256.641,176.124 256.793,176.009 256.979 M187.612 258.789 C 187.615 259.863,187.691 260.256,187.780 259.663 C 187.870 259.069,187.868 258.190,187.775 257.709 C 187.682 257.229,187.609 257.715,187.612 258.789 M188.867 257.422 C 189.297 257.607,190.000 257.752,190.430 257.746 C 191.058 257.737,191.019 257.673,190.234 257.422 C 188.899 256.994,187.872 256.994,188.867 257.422 M108.984 258.984 C 109.443 259.629,109.907 260.156,110.014 260.156 C 110.122 260.156,109.834 259.629,109.375 258.984 C 108.916 258.340,108.453 257.813,108.345 257.813 C 108.238 257.813,108.525 258.340,108.984 258.984 M191.916 258.063 C 193.489 258.522,192.285 263.341,190.625 263.230 C 190.163 263.199,190.174 263.155,190.677 263.021 C 191.712 262.745,190.682 260.853,189.604 261.049 C 188.980 261.163,188.822 261.035,188.955 260.527 C 189.051 260.157,188.961 259.749,188.755 259.621 C 188.218 259.290,187.821 262.259,188.257 263.346 C 188.528 264.023,188.629 264.082,188.647 263.574 C 188.674 262.841,189.451 262.662,190.059 263.250 C 190.263 263.448,191.221 263.667,192.188 263.738 C 193.154 263.809,194.068 264.038,194.217 264.246 C 194.888 265.183,194.733 264.133,194.046 263.086 C 193.624 262.441,193.373 262.207,193.489 262.565 C 193.605 262.924,193.479 263.302,193.208 263.406 C 192.712 263.596,192.603 262.645,193.035 261.907 C 193.569 260.997,192.787 258.019,191.992 257.938 C 191.344 257.871,191.331 257.892,191.916 258.063 M130.374 259.082 C 129.868 259.565,129.726 259.766,130.059 259.527 C 130.392 259.289,131.016 258.899,131.445 258.660 C 131.875 258.422,132.017 258.222,131.760 258.215 C 131.503 258.208,130.880 258.599,130.374 259.082 M180.469 259.157 C 180.469 259.681,180.613 260.199,180.789 260.308 C 180.965 260.417,181.033 259.988,180.940 259.354 C 180.735 257.958,180.469 257.847,180.469 259.157 M204.855 258.817 C 205.193 259.155,205.469 259.623,205.469 259.859 C 205.469 260.094,205.571 260.184,205.696 260.059 C 206.012 259.744,205.140 258.203,204.646 258.203 C 204.423 258.203,204.517 258.479,204.855 258.817 M136.161 259.803 C 136.790 260.575,137.384 261.140,137.480 261.060 C 137.576 260.979,137.062 260.347,136.336 259.655 L 135.018 258.398 136.161 259.803 M200.000 258.906 C 200.000 259.078,200.659 259.155,201.465 259.079 C 203.977 258.840,204.182 258.686,202.051 258.639 C 200.923 258.614,200.000 258.734,200.000 258.906 M269.173 258.691 C 269.263 258.745,269.863 259.229,270.508 259.766 L 271.680 260.742 270.733 259.668 C 270.212 259.077,269.611 258.594,269.398 258.594 C 269.185 258.594,269.084 258.638,269.173 258.691 M212.195 259.200 C 212.456 259.461,238.745 259.432,239.007 259.170 C 239.109 259.068,233.070 258.984,225.586 258.984 C 218.102 258.984,212.076 259.081,212.195 259.200 M239.486 259.521 C 239.888 259.880,242.188 260.937,242.188 260.762 C 242.188 260.537,240.022 259.375,239.603 259.375 C 239.449 259.375,239.396 259.441,239.486 259.521 M213.640 260.689 C 214.160 261.329,215.625 262.298,215.625 262.001 C 215.625 261.927,215.054 261.447,214.355 260.936 C 213.570 260.361,213.297 260.267,213.640 260.689 M206.167 261.133 C 206.394 261.563,207.423 262.705,208.454 263.672 L 210.327 265.430 208.214 263.086 C 207.052 261.797,206.023 260.654,205.927 260.547 C 205.832 260.439,205.940 260.703,206.167 261.133 M200.800 261.078 C 200.764 261.733,203.223 265.983,204.040 266.677 C 204.743 267.275,204.791 267.281,204.354 266.716 C 204.071 266.350,203.940 265.886,204.064 265.686 C 204.187 265.486,204.027 265.106,203.707 264.840 C 203.387 264.575,203.117 264.511,203.107 264.698 C 203.096 264.886,202.577 264.072,201.953 262.891 C 201.329 261.709,200.810 260.893,200.800 261.078 M137.591 262.891 C 137.591 263.643,137.671 263.950,137.769 263.574 C 137.868 263.198,137.868 262.583,137.769 262.207 C 137.671 261.831,137.591 262.139,137.591 262.891 M271.966 262.891 C 271.966 263.643,272.046 263.950,272.144 263.574 C 272.243 263.198,272.243 262.583,272.144 262.207 C 272.046 261.831,271.966 262.139,271.966 262.891 M276.270 263.477 C 276.275 264.336,276.355 264.642,276.448 264.156 C 276.542 263.670,276.538 262.967,276.440 262.593 C 276.342 262.220,276.266 262.617,276.270 263.477 M97.997 263.086 C 98.208 263.516,98.667 264.219,99.016 264.648 L 99.652 265.430 99.269 264.648 C 99.058 264.219,98.599 263.516,98.249 263.086 L 97.613 262.305 97.997 263.086 M220.508 264.663 C 221.152 264.958,221.943 265.194,222.266 265.187 C 222.588 265.180,222.236 264.938,221.484 264.648 C 219.701 263.962,218.999 263.972,220.508 264.663 M115.933 267.871 C 117.005 269.106,118.289 270.469,118.788 270.898 C 119.287 271.328,118.486 270.317,117.008 268.652 C 115.530 266.987,114.246 265.625,114.153 265.625 C 114.061 265.625,114.862 266.636,115.933 267.871 M284.546 267.676 L 283.398 268.945 284.668 267.798 C 285.366 267.167,285.938 266.596,285.938 266.528 C 285.938 266.227,285.615 266.492,284.546 267.676 M132.520 267.457 C 132.896 267.555,133.511 267.555,133.887 267.457 C 134.263 267.359,133.955 267.278,133.203 267.278 C 132.451 267.278,132.144 267.359,132.520 267.457 M102.344 269.531 C 102.803 270.176,103.266 270.703,103.374 270.703 C 103.481 270.703,103.193 270.176,102.734 269.531 C 102.275 268.887,101.812 268.359,101.705 268.359 C 101.597 268.359,101.885 268.887,102.344 269.531 M249.766 269.432 C 250.444 270.233,251.563 270.094,251.563 269.210 C 251.563 269.086,251.354 269.193,251.099 269.448 C 250.742 269.805,250.451 269.756,249.830 269.233 C 249.025 268.556,249.025 268.557,249.766 269.432 M217.611 269.286 C 218.013 269.646,220.313 270.703,220.313 270.528 C 220.313 270.303,218.147 269.141,217.728 269.141 C 217.574 269.141,217.521 269.206,217.611 269.286 M207.387 270.053 C 207.958 270.764,210.156 272.438,210.156 272.162 C 210.156 272.076,209.409 271.412,208.496 270.686 C 207.583 269.961,207.084 269.676,207.387 270.053 M281.250 271.289 C 280.301 272.256,279.613 273.047,279.720 273.047 C 279.828 273.047,280.692 272.256,281.641 271.289 C 282.589 270.322,283.278 269.531,283.170 269.531 C 283.063 269.531,282.199 270.322,281.250 271.289 M262.109 270.113 C 262.109 270.381,264.501 271.567,264.680 271.388 C 264.765 271.303,264.221 270.941,263.472 270.584 C 262.722 270.227,262.109 270.015,262.109 270.113 M111.719 270.435 C 111.719 270.502,112.290 271.073,112.988 271.704 L 114.258 272.852 113.111 271.582 C 112.041 270.399,111.719 270.133,111.719 270.435 M192.200 271.816 C 192.446 272.320,193.818 273.916,195.249 275.362 C 197.771 277.910,197.785 277.918,195.690 275.617 C 194.502 274.311,193.130 272.715,192.641 272.070 C 192.010 271.237,191.883 271.164,192.200 271.816 M106.042 274.592 C 107.026 275.872,108.025 277.038,108.261 277.184 C 108.497 277.330,107.773 276.283,106.653 274.857 C 105.533 273.432,104.534 272.266,104.434 272.266 C 104.333 272.266,105.057 273.313,106.042 274.592 M281.635 277.637 L 276.758 282.617 281.738 277.740 C 286.365 273.210,286.896 272.656,286.615 272.656 C 286.558 272.656,284.317 274.897,281.635 277.637 M118.164 277.344 C 120.520 279.707,122.536 281.641,122.643 281.641 C 122.750 281.641,120.911 279.707,118.555 277.344 C 116.199 274.980,114.183 273.047,114.076 273.047 C 113.968 273.047,115.808 274.980,118.164 277.344 M145.843 273.739 C 146.152 274.239,148.438 275.930,148.438 275.659 C 148.438 275.562,147.792 274.991,147.003 274.390 C 146.215 273.788,145.693 273.495,145.843 273.739 M226.367 275.391 C 227.425 276.465,228.379 277.344,228.486 277.344 C 228.594 277.344,227.816 276.465,226.758 275.391 C 225.700 274.316,224.746 273.438,224.639 273.438 C 224.531 273.438,225.309 274.316,226.367 275.391 M239.928 275.591 C 240.727 276.426,241.444 277.030,241.521 276.934 C 241.598 276.837,240.945 276.154,240.069 275.415 L 238.477 274.073 239.928 275.591 M155.503 274.707 C 155.594 274.761,156.282 275.332,157.033 275.977 L 158.398 277.148 157.251 275.879 C 156.620 275.181,155.932 274.609,155.721 274.609 C 155.511 274.609,155.413 274.653,155.503 274.707 M214.063 274.732 C 214.063 274.828,214.708 275.399,215.497 276.001 C 216.285 276.603,216.807 276.895,216.657 276.652 C 216.348 276.151,214.063 274.460,214.063 274.732 M100.171 276.300 C 100.772 277.089,101.344 277.734,101.440 277.734 C 101.712 277.734,100.020 275.449,99.520 275.140 C 99.276 274.990,99.569 275.512,100.171 276.300 M275.571 277.051 L 273.633 279.102 275.684 277.163 C 277.589 275.362,277.914 275.000,277.622 275.000 C 277.560 275.000,276.637 275.923,275.571 277.051 M148.968 276.083 C 149.277 276.583,151.563 278.274,151.563 278.003 C 151.563 277.906,150.917 277.335,150.128 276.733 C 149.340 276.132,148.818 275.839,148.968 276.083 M178.711 276.953 C 179.044 277.598,179.405 278.125,179.512 278.125 C 179.620 278.125,179.435 277.598,179.102 276.953 C 178.768 276.309,178.408 275.781,178.300 275.781 C 178.193 275.781,178.378 276.309,178.711 276.953 M190.820 278.906 C 192.313 280.410,193.622 281.641,193.729 281.641 C 193.836 281.641,192.703 280.410,191.211 278.906 C 189.719 277.402,188.410 276.172,188.302 276.172 C 188.195 276.172,189.328 277.402,190.820 278.906 M125.781 277.930 C 126.510 278.682,127.194 279.297,127.302 279.297 C 127.409 279.297,126.901 278.682,126.172 277.930 C 125.443 277.178,124.759 276.563,124.651 276.563 C 124.544 276.563,125.052 277.178,125.781 277.930 M218.945 278.906 C 219.784 279.766,220.559 280.469,220.666 280.469 C 220.774 280.469,220.175 279.766,219.336 278.906 C 218.497 278.047,217.722 277.344,217.615 277.344 C 217.507 277.344,218.106 278.047,218.945 278.906 M109.766 279.102 C 110.494 279.854,111.179 280.469,111.286 280.469 C 111.393 280.469,110.885 279.854,110.156 279.102 C 109.427 278.350,108.743 277.734,108.636 277.734 C 108.528 277.734,109.037 278.350,109.766 279.102 M290.405 279.395 L 289.258 280.664 290.527 279.517 C 291.226 278.886,291.797 278.314,291.797 278.247 C 291.797 277.945,291.475 278.211,290.405 279.395 M152.344 278.658 C 152.344 278.765,152.871 279.229,153.516 279.688 C 154.160 280.146,154.688 280.434,154.688 280.327 C 154.688 280.219,154.160 279.756,153.516 279.297 C 152.871 278.838,152.344 278.550,152.344 278.658 M246.845 279.946 C 246.325 280.518,246.126 280.854,246.404 280.693 C 246.682 280.533,247.209 280.636,247.576 280.923 C 248.168 281.387,248.186 281.373,247.735 280.797 C 247.304 280.245,247.361 280.056,248.115 279.527 C 248.742 279.088,248.825 278.906,248.397 278.906 C 248.065 278.906,247.366 279.374,246.845 279.946 M213.477 281.641 C 214.752 282.930,215.884 283.984,215.991 283.984 C 216.099 283.984,215.143 282.930,213.867 281.641 C 212.592 280.352,211.460 279.297,211.353 279.297 C 211.245 279.297,212.201 280.352,213.477 281.641 M128.125 279.810 C 128.125 279.877,128.696 280.448,129.395 281.079 L 130.664 282.227 129.517 280.957 C 128.447 279.774,128.125 279.508,128.125 279.810 M248.873 280.980 C 248.842 281.747,248.681 281.989,248.340 281.784 C 248.058 281.615,248.100 281.798,248.438 282.216 C 249.093 283.028,249.485 282.045,249.097 280.562 C 248.991 280.159,248.900 280.329,248.873 280.980 M116.016 285.742 C 118.479 288.213,120.583 290.234,120.690 290.234 C 120.798 290.234,118.870 288.213,116.406 285.742 C 113.943 283.271,111.839 281.250,111.731 281.250 C 111.624 281.250,113.552 283.271,116.016 285.742 M158.256 281.994 C 158.204 282.924,158.194 282.926,157.324 282.204 L 156.445 281.474 157.313 282.415 C 158.296 283.480,158.739 283.310,158.483 281.967 L 158.310 281.055 158.256 281.994 M243.536 282.910 L 241.992 284.570 243.652 283.026 C 244.565 282.177,245.313 281.430,245.313 281.366 C 245.313 281.070,244.972 281.366,243.536 282.910 M182.617 282.387 C 183.433 283.329,186.328 285.726,186.328 285.459 C 186.328 285.374,185.317 284.446,184.082 283.395 C 182.847 282.344,182.188 281.891,182.617 282.387 M123.438 282.153 C 123.438 282.221,124.009 282.792,124.707 283.423 L 125.977 284.570 124.829 283.301 C 123.760 282.117,123.438 281.852,123.438 282.153 M283.977 286.230 L 279.883 290.430 284.082 286.335 C 286.392 284.083,288.281 282.193,288.281 282.136 C 288.281 281.854,287.781 282.330,283.977 286.230 M206.445 284.766 C 207.503 285.840,208.457 286.719,208.564 286.719 C 208.672 286.719,207.894 285.840,206.836 284.766 C 205.778 283.691,204.824 282.813,204.717 282.813 C 204.609 282.813,205.387 283.691,206.445 284.766 M223.228 284.277 C 223.830 285.190,224.397 285.938,224.488 285.938 C 224.770 285.938,223.274 283.560,222.687 283.075 C 222.382 282.823,222.625 283.364,223.228 284.277 M197.656 284.432 C 200.116 286.874,203.505 289.801,201.953 288.142 C 200.986 287.109,199.492 285.721,198.633 285.057 C 197.773 284.393,197.334 284.112,197.656 284.432 M108.789 286.719 C 109.628 287.578,110.403 288.281,110.510 288.281 C 110.618 288.281,110.019 287.578,109.180 286.719 C 108.341 285.859,107.566 285.156,107.459 285.156 C 107.351 285.156,107.950 285.859,108.789 286.719 M164.184 288.086 C 164.186 289.375,164.259 289.855,164.346 289.153 C 164.433 288.451,164.431 287.396,164.342 286.809 C 164.252 286.222,164.181 286.797,164.184 288.086 M129.615 287.430 C 131.160 288.797,134.375 291.136,134.375 290.892 C 134.375 290.797,133.013 289.721,131.348 288.501 C 129.683 287.281,128.903 286.799,129.615 287.430 M289.830 288.574 L 287.695 290.820 289.941 288.685 C 292.028 286.702,292.366 286.328,292.076 286.328 C 292.015 286.328,291.005 287.339,289.830 288.574 M136.719 286.861 C 136.719 286.968,137.246 287.432,137.891 287.891 C 138.535 288.350,139.063 288.637,139.063 288.530 C 139.063 288.422,138.535 287.959,137.891 287.500 C 137.246 287.041,136.719 286.753,136.719 286.861 M148.541 288.562 C 149.134 288.651,150.013 288.649,150.494 288.556 C 150.974 288.464,150.488 288.390,149.414 288.393 C 148.340 288.396,147.947 288.472,148.541 288.562 M250.300 288.564 C 251.002 288.651,252.057 288.649,252.644 288.560 C 253.231 288.471,252.656 288.400,251.367 288.402 C 250.078 288.404,249.598 288.477,250.300 288.564 M151.986 288.797 C 152.607 289.273,155.078 290.563,155.078 290.411 C 155.078 290.150,152.619 288.675,152.181 288.673 C 151.984 288.673,151.896 288.728,151.986 288.797 M177.930 290.234 C 178.769 291.094,179.543 291.797,179.651 291.797 C 179.758 291.797,179.159 291.094,178.320 290.234 C 177.481 289.375,176.707 288.672,176.599 288.672 C 176.492 288.672,177.091 289.375,177.930 290.234 M219.168 289.258 C 219.168 289.473,219.420 290.088,219.727 290.625 C 220.034 291.162,220.285 291.426,220.285 291.211 C 220.285 290.996,220.034 290.381,219.727 289.844 C 219.420 289.307,219.168 289.043,219.168 289.258 M255.859 289.561 C 255.859 290.353,258.186 291.307,258.656 290.708 C 259.122 290.113,259.108 290.095,258.531 290.546 C 258.097 290.886,257.799 290.919,257.630 290.646 C 257.377 290.237,255.859 289.307,255.859 289.561 M141.168 290.165 C 141.778 291.152,142.865 291.418,143.416 290.714 C 143.881 290.121,143.871 290.097,143.333 290.516 C 142.841 290.899,142.539 290.866,141.803 290.351 C 141.299 289.998,141.013 289.914,141.168 290.165 M277.905 291.895 L 276.758 293.164 278.027 292.017 C 278.726 291.386,279.297 290.814,279.297 290.747 C 279.297 290.445,278.975 290.711,277.905 291.895 M121.875 291.138 C 121.875 291.205,122.446 291.776,123.145 292.407 L 124.414 293.555 123.267 292.285 C 122.197 291.102,121.875 290.836,121.875 291.138 M234.474 292.773 C 234.478 293.633,234.558 293.938,234.651 293.452 C 234.745 292.967,234.741 292.263,234.643 291.890 C 234.546 291.517,234.469 291.914,234.474 292.773 M284.167 294.238 L 281.836 296.680 284.277 294.348 C 285.620 293.066,286.719 291.967,286.719 291.907 C 286.719 291.618,286.333 291.970,284.167 294.238 M148.535 293.238 C 148.911 293.336,149.526 293.336,149.902 293.238 C 150.278 293.140,149.971 293.059,149.219 293.059 C 148.467 293.059,148.159 293.140,148.535 293.238 M151.172 293.769 C 152.527 294.689,153.298 294.956,152.344 294.176 C 151.807 293.736,151.191 293.376,150.977 293.374 C 150.762 293.373,150.850 293.550,151.172 293.769 M117.773 295.703 C 118.613 296.563,119.387 297.266,119.494 297.266 C 119.602 297.266,119.003 296.563,118.164 295.703 C 117.325 294.844,116.550 294.141,116.443 294.141 C 116.336 294.141,116.934 294.844,117.773 295.703 M171.596 295.898 C 171.599 296.973,171.675 297.366,171.765 296.772 C 171.854 296.178,171.852 295.299,171.759 294.819 C 171.667 294.338,171.593 294.824,171.596 295.898 M185.592 294.958 C 186.098 295.279,189.384 295.481,189.030 295.169 C 188.940 295.090,188.009 294.933,186.959 294.821 C 185.792 294.695,185.261 294.748,185.592 294.958 M206.288 294.922 C 206.273 295.029,206.511 295.908,206.816 296.875 C 207.120 297.842,207.373 298.281,207.378 297.852 C 207.386 297.171,206.356 294.405,206.288 294.922 M234.481 296.875 C 234.481 297.842,234.558 298.237,234.651 297.754 C 234.744 297.271,234.744 296.479,234.651 295.996 C 234.558 295.513,234.481 295.908,234.481 296.875 M127.484 296.005 C 127.793 296.505,130.078 298.196,130.078 297.925 C 130.078 297.828,129.433 297.257,128.644 296.655 C 127.855 296.054,127.333 295.761,127.484 296.005 M197.356 296.875 C 197.356 297.627,197.437 297.935,197.535 297.559 C 197.633 297.183,197.633 296.567,197.535 296.191 C 197.437 295.815,197.356 296.123,197.356 296.875 M144.630 297.852 C 144.634 298.711,144.714 299.017,144.808 298.531 C 144.901 298.045,144.897 297.342,144.800 296.968 C 144.702 296.595,144.625 296.992,144.630 297.852 M279.858 298.145 L 278.711 299.414 279.980 298.267 C 280.679 297.636,281.250 297.064,281.250 296.997 C 281.250 296.695,280.928 296.961,279.858 298.145 M189.740 298.928 L 189.051 300.195 189.838 299.273 C 190.508 298.488,190.866 297.650,190.527 297.659 C 190.474 297.660,190.120 298.231,189.740 298.928 M255.859 298.993 C 255.859 299.299,255.400 300.134,254.838 300.849 L 253.818 302.148 255.034 300.873 C 256.091 299.764,256.647 298.438,256.055 298.438 C 255.947 298.438,255.859 298.688,255.859 298.993 M222.356 300.000 C 222.356 300.752,222.437 301.060,222.535 300.684 C 222.633 300.308,222.633 299.692,222.535 299.316 C 222.437 298.940,222.356 299.248,222.356 300.000 M166.406 299.368 C 166.406 299.788,167.569 301.953,167.794 301.953 C 167.901 301.953,167.698 301.382,167.343 300.684 C 166.618 299.258,166.406 298.960,166.406 299.368 M152.733 300.879 C 152.158 301.664,152.064 301.937,152.486 301.595 C 153.126 301.074,154.095 299.609,153.798 299.609 C 153.724 299.609,153.244 300.181,152.733 300.879 M265.039 301.725 C 264.395 302.242,263.955 302.733,264.063 302.817 C 264.170 302.901,264.783 302.477,265.424 301.875 C 266.853 300.535,266.631 300.448,265.039 301.725 M207.951 304.492 C 207.950 306.426,208.016 307.266,208.098 306.359 C 208.180 305.453,208.181 303.871,208.100 302.844 C 208.019 301.817,207.952 302.559,207.951 304.492 M213.808 304.297 C 213.808 306.123,213.876 306.870,213.958 305.957 C 214.040 305.044,214.040 303.550,213.958 302.637 C 213.876 301.724,213.808 302.471,213.808 304.297 M136.811 303.693 C 137.495 304.883,138.846 306.604,139.813 307.518 L 141.573 309.180 139.768 307.184 C 138.775 306.087,137.598 304.473,137.151 303.598 C 136.705 302.722,136.166 301.899,135.954 301.768 C 135.742 301.637,136.128 302.503,136.811 303.693 M250.879 302.613 C 251.255 302.711,251.870 302.711,252.246 302.613 C 252.622 302.515,252.314 302.434,251.563 302.434 C 250.811 302.434,250.503 302.515,250.879 302.613 M126.563 302.876 C 126.563 302.984,127.090 303.447,127.734 303.906 C 128.379 304.365,128.906 304.653,128.906 304.545 C 128.906 304.438,128.379 303.975,127.734 303.516 C 127.090 303.057,126.563 302.769,126.563 302.876 M257.202 304.785 L 256.055 306.055 257.324 304.907 C 258.022 304.276,258.594 303.705,258.594 303.638 C 258.594 303.336,258.271 303.602,257.202 304.785 M155.249 305.176 L 154.102 306.445 155.371 305.298 C 156.554 304.229,156.820 303.906,156.518 303.906 C 156.451 303.906,155.880 304.478,155.249 305.176 M169.922 305.200 C 169.922 305.268,170.493 305.839,171.191 306.470 L 172.461 307.617 171.314 306.348 C 170.244 305.164,169.922 304.899,169.922 305.200 M202.044 306.250 C 202.044 307.002,202.124 307.310,202.222 306.934 C 202.321 306.558,202.321 305.942,202.222 305.566 C 202.124 305.190,202.044 305.498,202.044 306.250 M200.171 307.129 L 199.023 308.398 200.293 307.251 C 200.991 306.620,201.563 306.049,201.563 305.982 C 201.563 305.680,201.240 305.946,200.171 307.129 M222.356 308.594 C 222.356 309.346,222.437 309.653,222.535 309.277 C 222.633 308.901,222.633 308.286,222.535 307.910 C 222.437 307.534,222.356 307.842,222.356 308.594 M229.785 308.870 C 228.264 310.553,228.114 311.059,229.528 309.736 C 230.398 308.922,231.501 307.379,231.166 307.443 C 231.105 307.455,230.483 308.097,229.785 308.870 M182.309 308.984 C 182.421 309.414,182.560 309.766,182.617 309.766 C 182.674 309.766,182.813 309.414,182.926 308.984 C 183.053 308.496,182.938 308.203,182.617 308.203 C 182.297 308.203,182.181 308.496,182.309 308.984 M196.264 311.035 L 195.117 312.305 196.387 311.157 C 197.570 310.088,197.836 309.766,197.534 309.766 C 197.467 309.766,196.896 310.337,196.264 311.035 M156.250 312.695 C 157.217 313.213,158.184 313.637,158.398 313.637 C 158.613 313.637,157.998 313.213,157.031 312.695 C 156.064 312.178,155.098 311.754,154.883 311.754 C 154.668 311.754,155.283 312.178,156.250 312.695 M148.047 316.211 C 148.584 316.518,149.199 316.769,149.414 316.769 C 149.629 316.769,149.365 316.518,148.828 316.211 C 148.291 315.904,147.676 315.653,147.461 315.653 C 147.246 315.653,147.510 315.904,148.047 316.211 M193.059 319.141 C 193.059 319.893,193.140 320.200,193.238 319.824 C 193.336 319.448,193.336 318.833,193.238 318.457 C 193.140 318.081,193.059 318.389,193.059 319.141 M198.555 322.266 C 198.555 323.447,198.628 323.931,198.717 323.340 C 198.807 322.749,198.807 321.782,198.717 321.191 C 198.628 320.601,198.555 321.084,198.555 322.266 M224.270 323.697 C 223.593 325.092,223.500 325.601,223.863 325.935 C 224.211 326.255,224.264 326.244,224.066 325.892 C 223.919 325.631,224.169 324.691,224.622 323.804 C 225.075 322.916,225.378 322.123,225.296 322.041 C 225.214 321.959,224.753 322.704,224.270 323.697 M217.383 324.219 C 217.050 324.863,216.865 325.391,216.972 325.391 C 217.080 325.391,217.440 324.863,217.773 324.219 C 218.107 323.574,218.292 323.047,218.184 323.047 C 218.077 323.047,217.716 323.574,217.383 324.219 M186.036 324.805 C 186.040 325.664,186.120 325.970,186.214 325.484 C 186.307 324.998,186.304 324.295,186.206 323.921 C 186.108 323.548,186.032 323.945,186.036 324.805 M210.339 333.691 L 208.008 336.133 210.449 333.801 C 211.792 332.519,212.891 331.420,212.891 331.360 C 212.891 331.071,212.505 331.424,210.339 333.691 M194.922 334.570 C 194.385 334.877,194.121 335.129,194.336 335.129 C 194.551 335.129,195.166 334.877,195.703 334.570 C 196.240 334.263,196.504 334.012,196.289 334.012 C 196.074 334.012,195.459 334.263,194.922 334.570 M188.732 335.586 C 188.013 336.240,187.554 336.894,187.711 337.040 C 187.869 337.185,188.070 337.104,188.158 336.858 C 188.246 336.612,188.618 336.455,188.984 336.509 C 189.349 336.563,189.413 336.528,189.125 336.432 C 188.739 336.303,188.833 336.011,189.486 335.316 C 190.712 334.012,190.303 334.158,188.732 335.586 M165.467 336.659 C 165.354 336.841,165.827 337.500,166.518 338.124 L 167.773 339.258 166.667 338.031 C 165.864 337.140,165.704 336.748,166.082 336.597 C 166.422 336.461,166.441 336.379,166.136 336.359 C 165.880 336.342,165.579 336.477,165.467 336.659 M170.996 337.783 C 171.694 337.869,172.837 337.869,173.535 337.783 C 174.233 337.696,173.662 337.625,172.266 337.625 C 170.869 337.625,170.298 337.696,170.996 337.783 M183.894 344.814 C 184.596 344.901,185.650 344.899,186.237 344.810 C 186.824 344.721,186.250 344.650,184.961 344.652 C 183.672 344.654,183.192 344.727,183.894 344.814 " stroke="none" fill="#b5b7be" fill-rule="evenodd"></path><path id="path2" d="M181.341 169.141 C 181.341 169.893,181.421 170.200,181.519 169.824 C 181.618 169.448,181.618 168.833,181.519 168.457 C 181.421 168.081,181.341 168.389,181.341 169.141 M175.879 252.548 C 175.982 253.091,175.912 253.630,175.722 253.747 C 175.533 253.864,175.481 254.127,175.607 254.330 C 175.732 254.534,176.016 254.588,176.238 254.451 C 176.461 254.314,176.425 254.616,176.158 255.129 C 175.460 256.469,175.256 256.584,175.556 255.469 C 175.786 254.612,175.763 254.582,175.366 255.218 C 174.635 256.392,175.459 257.766,176.746 257.520 C 177.456 257.384,177.942 257.549,178.327 258.056 C 178.632 258.459,178.887 258.650,178.894 258.481 C 178.901 258.311,179.151 258.399,179.451 258.676 C 179.751 258.953,179.924 259.299,179.835 259.446 C 179.747 259.592,179.853 259.822,180.072 259.957 C 180.308 260.103,180.469 259.717,180.469 259.007 C 180.469 258.350,180.337 257.813,180.176 257.813 C 180.015 257.813,179.941 256.880,180.012 255.738 L 180.142 253.663 178.581 252.959 C 177.717 252.570,176.802 252.391,176.530 252.559 C 176.184 252.773,176.113 252.670,176.289 252.213 C 176.427 251.852,176.349 251.563,176.114 251.563 C 175.871 251.563,175.771 251.984,175.879 252.548 M179.688 254.112 C 179.688 254.533,178.935 254.246,178.071 253.496 L 177.148 252.696 178.418 253.311 C 179.116 253.649,179.688 254.010,179.688 254.112 M187.891 257.479 C 187.891 257.662,188.085 257.813,188.323 257.813 C 188.562 257.813,188.646 258.097,188.512 258.448 C 188.378 258.797,188.466 259.323,188.709 259.615 C 188.951 259.907,189.058 260.385,188.947 260.676 C 188.805 261.045,188.999 261.160,189.586 261.052 C 190.668 260.855,191.723 262.727,190.671 262.977 C 189.582 263.235,188.600 262.859,188.826 262.271 C 188.943 261.967,188.868 261.719,188.660 261.719 C 187.908 261.719,188.302 262.924,189.158 263.240 C 190.013 263.556,192.162 263.077,192.212 262.559 C 192.226 262.419,192.293 261.738,192.362 261.045 C 192.485 259.795,191.771 258.713,191.098 259.129 C 190.909 259.245,190.755 259.084,190.755 258.770 C 190.755 258.276,190.879 258.280,191.667 258.796 C 192.168 259.124,192.578 259.224,192.578 259.016 C 192.578 258.483,192.072 258.230,189.846 257.653 C 188.771 257.374,187.891 257.296,187.891 257.479 M202.227 258.882 C 200.068 259.051,200.064 259.109,201.972 262.914 C 203.184 265.331,204.076 266.298,204.484 265.638 C 204.626 265.409,204.905 265.323,205.105 265.446 C 205.305 265.570,205.469 265.397,205.469 265.062 C 205.469 264.415,206.096 264.218,206.315 264.796 C 206.520 265.337,208.203 264.545,208.203 263.908 C 208.203 263.595,207.764 262.992,207.227 262.570 C 206.689 262.147,206.250 261.629,206.250 261.417 C 206.250 261.206,205.988 260.816,205.668 260.550 C 205.348 260.285,205.183 259.912,205.301 259.721 C 205.419 259.531,205.197 259.372,204.808 259.369 C 204.209 259.364,204.191 259.305,204.688 258.984 C 205.208 258.648,205.208 258.613,204.688 258.670 C 204.365 258.706,203.258 258.801,202.227 258.882 M192.796 261.991 C 192.924 262.900,192.786 263.349,192.287 263.639 C 191.910 263.859,191.777 264.038,191.992 264.038 C 193.155 264.037,193.671 263.077,193.141 261.902 L 192.618 260.742 192.796 261.991 M198.828 270.044 C 198.828 270.111,199.399 270.683,200.098 271.314 L 201.367 272.461 200.220 271.191 C 199.150 270.008,198.828 269.742,198.828 270.044 " stroke="none" fill="#ccccd3" fill-rule="evenodd"></path><path id="path3" d="M300.872 113.672 C 300.872 114.424,300.952 114.731,301.051 114.355 C 301.149 113.979,301.149 113.364,301.051 112.988 C 300.952 112.612,300.872 112.920,300.872 113.672 M99.355 119.922 C 99.355 121.748,99.423 122.495,99.505 121.582 C 99.587 120.669,99.587 119.175,99.505 118.262 C 99.423 117.349,99.355 118.096,99.355 119.922 M179.985 129.964 C 180.471 130.057,181.174 130.054,181.548 129.956 C 181.921 129.858,181.523 129.782,180.664 129.786 C 179.805 129.790,179.499 129.870,179.985 129.964 M126.855 158.880 C 127.769 158.962,129.263 158.962,130.176 158.880 C 131.089 158.798,130.342 158.730,128.516 158.730 C 126.689 158.730,125.942 158.798,126.855 158.880 M270.801 158.874 C 271.392 158.963,272.358 158.963,272.949 158.874 C 273.540 158.784,273.057 158.711,271.875 158.711 C 270.693 158.711,270.210 158.784,270.801 158.874 M181.341 164.844 C 181.341 165.596,181.421 165.903,181.519 165.527 C 181.618 165.151,181.618 164.536,181.519 164.160 C 181.421 163.784,181.341 164.092,181.341 164.844 M132.910 175.292 C 136.079 175.358,141.265 175.358,144.434 175.292 C 147.603 175.226,145.010 175.173,138.672 175.173 C 132.334 175.173,129.741 175.226,132.910 175.292 M248.560 175.292 C 252.172 175.357,257.973 175.357,261.451 175.292 C 264.928 175.227,261.973 175.175,254.883 175.175 C 247.793 175.175,244.948 175.228,248.560 175.292 M236.640 192.088 C 238.422 192.160,241.235 192.160,242.890 192.087 C 244.544 192.014,243.086 191.955,239.648 191.955 C 236.211 191.955,234.857 192.015,236.640 192.088 M89.950 203.125 C 89.950 204.092,90.026 204.487,90.119 204.004 C 90.213 203.521,90.213 202.729,90.119 202.246 C 90.026 201.763,89.950 202.158,89.950 203.125 M310.678 207.813 C 310.678 209.424,310.747 210.083,310.831 209.277 C 310.916 208.472,310.916 207.153,310.831 206.348 C 310.747 205.542,310.678 206.201,310.678 207.813 M126.902 223.934 C 127.068 224.100,130.707 224.188,134.989 224.129 L 142.773 224.022 134.687 223.827 C 130.239 223.720,126.736 223.768,126.902 223.934 M249.921 224.900 C 251.704 224.973,254.516 224.972,256.171 224.899 C 257.826 224.826,256.367 224.767,252.930 224.767 C 249.492 224.768,248.138 224.828,249.921 224.900 M226.270 229.883 C 226.275 230.742,226.355 231.048,226.448 230.562 C 226.542 230.076,226.538 229.373,226.440 228.999 C 226.342 228.626,226.266 229.023,226.270 229.883 M102.447 241.296 C 103.041 241.386,103.919 241.383,104.400 241.291 C 104.880 241.198,104.395 241.124,103.320 241.127 C 102.246 241.130,101.853 241.206,102.447 241.296 M231.152 265.914 C 232.495 265.990,234.692 265.990,236.035 265.914 C 237.378 265.838,236.279 265.776,233.594 265.776 C 230.908 265.776,229.810 265.838,231.152 265.914 M278.296 274.707 L 277.148 275.977 278.418 274.829 C 279.116 274.198,279.688 273.627,279.688 273.560 C 279.688 273.258,279.365 273.524,278.296 274.707 M114.258 292.188 C 115.097 293.047,115.871 293.750,115.979 293.750 C 116.086 293.750,115.488 293.047,114.648 292.188 C 113.809 291.328,113.035 290.625,112.927 290.625 C 112.820 290.625,113.419 291.328,114.258 292.188 M186.427 320.508 C 186.431 321.367,186.511 321.673,186.604 321.187 C 186.698 320.701,186.694 319.998,186.597 319.624 C 186.499 319.251,186.422 319.648,186.427 320.508 " stroke="none" fill="#d8dae0" fill-rule="evenodd"></path><path id="path4" d="M125.488 175.269 C 125.864 175.368,126.479 175.368,126.855 175.269 C 127.231 175.171,126.924 175.091,126.172 175.091 C 125.420 175.091,125.112 175.171,125.488 175.269 " stroke="none" fill="#ced4d4" fill-rule="evenodd"></path></g></svg>